<svg width="20" height="31" viewBox="0 0 20 31" fill="none" xmlns="http://www.w3.org/2000/svg">
<path d="M10 11.9884C6.65323 11.9884 3.91129 9.28901 3.91129 5.99419C3.95161 2.69937 6.65323 0 10 0C13.3468 0 16.0887 2.69937 16.0887 5.99419C16.0887 9.28901 13.3871 11.9884 10 11.9884ZM10 2.69937C8.14516 2.69937 6.65323 4.16814 6.65323 5.99419C6.65323 7.82023 8.14516 9.28901 10 9.28901C11.8548 9.28901 13.3468 7.82023 13.3468 5.99419C13.3468 4.16814 11.8548 2.69937 10 2.69937Z" fill="#A25133"/>
<path d="M17.2984 31V23.5798C17.2984 19.6101 14.0323 16.4344 10.0403 16.4344C6.00806 16.4344 2.78226 19.6498 2.78226 23.5798V31H0V23.5798C0 18.1414 4.47581 13.735 10 13.735C15.5242 13.735 20 18.1414 20 23.5798V31H17.2984Z" fill="#A25133"/>
</svg>
