<svg width="42" height="36" viewBox="0 0 42 36" fill="none" xmlns="http://www.w3.org/2000/svg">
<rect width="42" height="36" fill="white"/>
<path d="M36.75 6H8.75H7H3.5V9H7H7.525L13.2685 22.5375C14.0193 24.309 16.0038 25.5 18.2018 25.5H33.25V22.5H18.2018C17.4685 22.5 16.807 22.1025 16.5568 21.513L15.7028 19.5H31.9305C33.488 19.5 34.8705 18.603 35.2958 17.3235L38.4335 7.9125C38.584 7.4595 38.4773 6.9735 38.1483 6.597C37.8158 6.2205 37.2978 6 36.75 6ZM31.9305 16.5H14.4305L11.249 9H34.4313L31.9305 16.5Z" fill="#A25133"/>
<path d="M18.375 31.5C19.8247 31.5 21 30.4926 21 29.25C21 28.0074 19.8247 27 18.375 27C16.9253 27 15.75 28.0074 15.75 29.25C15.75 30.4926 16.9253 31.5 18.375 31.5Z" fill="#A25133"/>
<path d="M28.875 31.5C30.3247 31.5 31.5 30.4926 31.5 29.25C31.5 28.0074 30.3247 27 28.875 27C27.4253 27 26.25 28.0074 26.25 29.25C26.25 30.4926 27.4253 31.5 28.875 31.5Z" fill="#A25133"/>
</svg>
