<svg width="107" height="107" viewBox="0 0 107 107" fill="none" xmlns="http://www.w3.org/2000/svg">
<path d="M34.2399 6.42004C18.9014 6.42004 6.41992 18.9016 6.41992 34.24V72.76C6.41992 88.0985 18.9014 100.58 34.2399 100.58H72.7599C88.0984 100.58 100.58 88.0985 100.58 72.76V34.24C100.58 18.9016 88.0984 6.42004 72.7599 6.42004H34.2399ZM34.2399 10.7H72.7599C85.785 10.7 96.2999 21.215 96.2999 34.24V72.76C96.2999 85.7851 85.785 96.3 72.7599 96.3H34.2399C21.2148 96.3 10.6999 85.7851 10.6999 72.76V34.24C10.6999 21.215 21.2148 10.7 34.2399 10.7ZM79.1799 23.54C78.0448 23.54 76.9562 23.991 76.1535 24.7936C75.3509 25.5963 74.8999 26.6849 74.8999 27.82C74.8999 28.9552 75.3509 30.0438 76.1535 30.8465C76.9562 31.6491 78.0448 32.1 79.1799 32.1C80.3151 32.1 81.4037 31.6491 82.2063 30.8465C83.009 30.0438 83.4599 28.9552 83.4599 27.82C83.4599 26.6849 83.009 25.5963 82.2063 24.7936C81.4037 23.991 80.3151 23.54 79.1799 23.54ZM53.4999 29.96C40.5245 29.96 29.9599 40.5246 29.9599 53.5C29.9599 66.4755 40.5245 77.04 53.4999 77.04C66.4754 77.04 77.0399 66.4755 77.0399 53.5C77.0399 40.5246 66.4754 29.96 53.4999 29.96ZM53.4999 34.24C64.1623 34.24 72.7599 42.8377 72.7599 53.5C72.7599 64.1624 64.1623 72.76 53.4999 72.76C42.8376 72.76 34.2399 64.1624 34.2399 53.5C34.2399 42.8377 42.8376 34.24 53.4999 34.24Z" fill="#A25133"/>
</svg>
