<svg width="170" height="170" viewBox="0 0 170 170" fill="none" xmlns="http://www.w3.org/2000/svg">
<path d="M170 85C170 131.944 131.944 170 85 170C38.0558 170 0 131.944 0 85C0 38.0558 38.0558 0 85 0C131.944 0 170 38.0558 170 85Z" fill="white"/>
<path d="M97.899 39.7229L108.798 45.9054L120.121 52.3274L74.0528 62.1058L51.232 48.8158L97.899 39.7229ZM98.832 34L36 46.24L73.128 67.864C93.8462 63.4658 114.562 59.0702 135.28 54.672C123.13 47.7822 110.982 40.8898 98.832 34Z" fill="#E6AE75"/>
<path d="M129.919 61.287L130.248 88.8733L130.602 118.513L103.589 124.032L78.6903 129.121L78.6359 101.404L78.5761 71.5088L108.08 65.6336L129.919 61.2843M135.28 54.672C114.562 58.7982 93.8462 62.9218 73.1279 67.048C73.1742 89.9613 73.2177 112.872 73.2639 135.785C94.2079 131.504 115.152 127.225 136.096 122.944C135.824 100.186 135.552 77.4302 135.28 54.672Z" fill="#A25133"/>
<path d="M41.44 55.5261L67.6934 70.2413L67.756 101.538L67.805 126.812L57.2432 121.029L41.44 112.377V55.5261ZM36 46.24V115.6C48.4222 122.4 60.8418 129.2 73.264 136C73.2178 113.016 73.1742 90.032 73.128 67.048L36 46.24Z" fill="#F5D2AC"/>
<path d="M42.5387 110.877C42.4866 110.848 42.4578 110.807 42.4525 110.756C42.4501 110.699 42.4653 110.642 42.4979 110.585L42.8936 109.889L43.2894 109.192L43.9852 107.931C44.2868 107.364 44.5161 106.943 44.6733 106.666L44.8101 106.444L45.0991 105.935C45.4193 105.372 45.5741 105.087 45.5637 105.081L44.6795 104.579C44.6378 104.555 44.6046 104.522 44.5799 104.481C44.5605 104.442 44.5611 104.404 44.5819 104.368C44.6056 104.326 44.6297 104.302 44.6543 104.295C44.6788 104.288 44.728 104.299 44.8017 104.327C44.8836 104.353 44.9924 104.404 45.128 104.481L45.9105 104.926L46.7757 105.407C46.8383 105.443 46.8741 105.477 46.8831 105.51C46.8973 105.546 46.8911 105.587 46.8644 105.634C46.8199 105.712 46.7481 105.723 46.649 105.667L46.2969 105.467L45.9526 105.271L45.8778 105.239L45.6277 105.697L45.2808 106.307L43.4754 109.484L43.1063 110.134L42.7851 110.717L42.7762 110.733C42.7525 110.775 42.7291 110.81 42.7061 110.838C42.6861 110.861 42.6638 110.876 42.6392 110.883C42.6087 110.9 42.5753 110.898 42.5387 110.877ZM44.4349 111.955C44.3723 111.919 44.3929 111.81 44.4967 111.628C44.6449 111.367 44.7742 111.133 44.8846 110.927L45.2692 110.214L45.6294 109.58C45.7309 109.389 45.8484 109.177 45.9818 108.942C46.379 108.243 46.7336 107.589 47.0455 106.979L47.1977 106.693C47.357 106.376 47.4914 106.121 47.6011 105.928L47.6424 105.91C47.6535 105.903 47.6714 105.896 47.6959 105.889C47.71 105.876 47.729 105.873 47.7528 105.88C47.7662 105.881 47.786 105.888 47.8121 105.903C47.9946 106.007 48.1352 106.142 48.2339 106.309C48.3377 106.478 48.3951 106.663 48.406 106.862C48.4255 107.253 48.3315 107.631 48.124 107.996C47.9906 108.23 47.8151 108.448 47.5975 108.649C47.3851 108.852 47.147 109.01 46.8831 109.123C46.605 109.248 46.3591 109.274 46.1453 109.2L45.6674 110.078L45.4429 110.509C45.1792 111.022 44.9465 111.456 44.7449 111.81C44.6975 111.894 44.6489 111.949 44.5991 111.976C44.5575 112 44.5028 111.994 44.4349 111.955ZM46.3099 108.911C46.3598 108.932 46.4186 108.938 46.4863 108.928C46.4997 108.929 46.5298 108.919 46.5766 108.897C46.5766 108.897 46.6053 108.889 46.6625 108.873C47.1943 108.727 47.6055 108.398 47.896 107.887C48.062 107.595 48.1588 107.291 48.1863 106.975C48.1978 106.809 48.1644 106.656 48.0859 106.514C48.0104 106.368 47.8918 106.249 47.7301 106.157C47.5611 106.454 47.3233 106.909 47.0166 107.522C46.7099 108.134 46.4721 108.589 46.3031 108.886L46.3099 108.911ZM47.9934 113.915C47.9517 113.891 47.9226 113.858 47.9061 113.814C47.8949 113.773 47.8996 113.734 47.9204 113.698L48.5029 112.673C48.5385 112.61 48.4381 112.477 48.2017 112.274C47.9653 112.07 47.761 111.92 47.5889 111.822C47.5784 111.816 47.5379 111.845 47.4674 111.908C47.402 111.975 47.3538 112.023 47.3226 112.054C47.1006 112.286 46.8683 112.537 46.6256 112.807L46.4886 112.956C46.4545 112.992 46.4165 112.998 46.3748 112.975C46.3331 112.951 46.3013 112.916 46.2796 112.869C46.2632 112.825 46.2653 112.785 46.2861 112.748L46.3028 112.737L46.3072 112.729L46.6156 112.387C46.8176 112.177 47.0087 111.968 47.1891 111.76C47.3924 111.524 47.5294 111.374 47.5999 111.311C47.7395 111.162 48.0675 110.779 48.5841 110.162L48.7777 109.93C49.3699 109.204 49.7514 108.751 49.9221 108.572C50.0194 108.462 50.1715 108.304 50.3787 108.097C50.4641 108.007 50.5599 107.924 50.6661 107.846C50.7635 107.784 50.8278 107.762 50.8591 107.78C50.9425 107.827 50.9877 107.887 50.9946 107.96C50.994 108.022 50.8864 108.303 50.6717 108.802C50.4623 109.304 50.2421 109.807 50.0111 110.31L49.3746 111.667C49.2471 111.891 49.0701 112.239 48.8435 112.711C48.6139 113.188 48.4353 113.538 48.3079 113.763L48.2901 113.794C48.2575 113.851 48.22 113.899 48.1777 113.937C48.1331 113.967 48.0717 113.96 47.9934 113.915ZM48.5387 112.227C48.643 112.286 48.71 112.29 48.7396 112.238C48.9234 111.914 49.1557 111.463 49.4364 110.884C49.72 110.3 49.9626 109.782 50.1639 109.331C50.2572 109.142 50.3505 108.93 50.4437 108.693L50.5859 108.37C50.5829 108.375 50.594 108.343 50.6191 108.275L50.6568 108.172C50.5499 108.263 50.4177 108.399 50.2604 108.578C50.1082 108.761 49.9328 108.979 49.7339 109.232C49.167 109.938 48.728 110.461 48.417 110.802L48.1954 111.028C47.9689 111.244 47.8171 111.42 47.74 111.556L47.7134 111.603C47.9014 111.806 48.1441 111.993 48.4414 112.162L48.4884 112.188C48.501 112.202 48.5178 112.215 48.5387 112.227ZM48.392 114.991C48.3592 114.951 48.3635 114.895 48.405 114.822L48.4573 114.748L48.5528 114.544C48.6528 114.331 48.7057 114.22 48.7117 114.21C48.768 114.11 48.8166 114.055 48.8575 114.044C48.8902 114.035 48.9405 114.05 49.0083 114.088C49.097 114.139 49.1771 114.198 49.2487 114.266C49.3394 114.228 49.4242 114.176 49.5029 114.111C49.5868 114.048 49.6845 113.955 49.7958 113.832C50.1691 113.381 50.4665 112.943 50.688 112.517L51.6316 110.765C52.011 110.049 52.2892 109.517 52.4662 109.169C52.4692 109.164 52.5029 109.087 52.5673 108.937L52.5851 108.906C52.6058 108.869 52.6285 108.848 52.653 108.841C52.6828 108.837 52.7252 108.847 52.7803 108.872C52.9852 108.961 53.2102 109.075 53.4554 109.214C53.4949 109.23 53.5262 109.247 53.5493 109.267C53.5806 109.285 53.6067 109.3 53.6275 109.312C53.6954 109.35 53.7639 109.376 53.8331 109.387C53.8971 109.396 53.9378 109.44 53.9551 109.519C53.9806 109.595 53.9741 109.667 53.9355 109.735C53.7176 110.095 53.5686 110.345 53.4885 110.485L53.0606 111.257C52.9287 111.513 52.8183 111.719 52.7294 111.876C52.5827 112.158 52.3801 112.557 52.1216 113.073C51.866 113.583 51.6705 113.976 51.5349 114.251C51.4475 114.429 51.308 114.753 51.1164 115.224L51.312 115.335C51.3977 115.391 51.4525 115.446 51.4765 115.501C51.5034 115.551 51.5005 115.605 51.4679 115.662C51.4501 115.693 51.4171 115.733 51.3688 115.782L51.1639 115.997C51.0556 116.114 50.9705 116.197 50.9089 116.245C50.8495 116.301 50.7919 116.323 50.736 116.312C50.7092 116.311 50.6906 116.307 50.6802 116.301C50.6437 116.281 50.6253 116.246 50.6252 116.198C50.6303 116.152 50.6529 116.106 50.693 116.06C50.7777 115.984 50.931 115.83 51.153 115.597C51.0873 115.518 50.9997 115.448 50.8901 115.385C50.8067 115.338 50.6808 115.28 50.5124 115.212C50.0632 115.019 49.6925 114.839 49.4004 114.673C49.2491 114.587 49.1101 114.498 48.9834 114.405C48.9499 114.428 48.8977 114.502 48.8265 114.627C48.7264 114.791 48.6422 114.908 48.5739 114.98C48.5056 115.052 48.445 115.055 48.392 114.991ZM49.9441 114.682C50.2205 114.839 50.5137 114.985 50.8236 115.12L50.9659 114.87C50.9985 114.812 51.0371 114.744 51.0816 114.666C51.1312 114.591 51.1802 114.505 51.2283 114.408L51.8882 113.065C52.1105 112.625 52.3379 112.188 52.5706 111.755L53.3306 110.271C53.4714 109.999 53.571 109.794 53.6295 109.655C53.5056 109.508 53.3889 109.404 53.2793 109.342C53.1385 109.262 52.978 109.222 52.7979 109.223C52.766 109.267 52.7037 109.353 52.611 109.479C52.5212 109.601 52.4434 109.726 52.3774 109.854C52.2611 110.071 52.0774 110.418 51.8262 110.897C51.575 111.375 51.3902 111.719 51.2716 111.927L51.1716 112.14C51.1353 112.216 51.069 112.351 50.9727 112.544C50.8794 112.733 50.7898 112.903 50.7038 113.054C50.606 113.226 50.4973 113.399 50.3779 113.573C50.1954 113.821 50.0444 114.008 49.9249 114.133C49.8054 114.258 49.6706 114.368 49.5205 114.462L49.9441 114.682ZM52.0511 116.314C52.0146 116.294 51.9855 116.26 51.9638 116.213C51.9421 116.166 51.9375 116.126 51.9501 116.091C52.0269 115.859 52.0898 115.688 52.1387 115.577L52.3553 115.142C52.6612 114.494 52.9282 113.97 53.1565 113.568C53.278 113.354 53.4181 113.12 53.5768 112.865C53.7384 112.605 53.8515 112.424 53.916 112.323L54.2241 111.835C54.5309 111.319 54.757 110.934 54.9023 110.678C54.9342 110.634 54.9579 110.592 54.9734 110.553C54.9942 110.516 55.012 110.485 55.0268 110.459L55.1469 110.248C55.1706 110.206 55.2081 110.182 55.2594 110.177C55.3108 110.172 55.3622 110.191 55.4136 110.234C55.4852 110.302 55.485 110.381 55.4131 110.471C55.37 110.523 55.334 110.568 55.3051 110.607C55.2844 110.643 55.2666 110.675 55.2517 110.701L55.0538 111.013C54.8833 111.288 54.7542 111.491 54.6667 111.621C54.6052 111.717 54.5002 111.871 54.3519 112.084C54.3022 112.159 54.2395 112.251 54.1639 112.36C54.0912 112.463 54.0093 112.589 53.9181 112.738C53.6942 113.107 53.5274 113.389 53.4177 113.582C53.2843 113.817 53.1861 113.995 53.1232 114.118C52.9742 114.393 52.7976 114.758 52.5933 115.215L52.4344 115.549C52.4189 115.588 52.4004 115.633 52.3789 115.683C52.3656 115.731 52.3497 115.777 52.3312 115.821L52.3625 115.839C52.3759 115.84 52.54 115.685 52.8549 115.374C53.1726 115.057 53.3939 114.838 53.5186 114.716L54.727 113.518L56.5579 111.681C56.7368 111.5 56.8545 111.384 56.911 111.333C56.9815 111.27 57.0559 111.26 57.1342 111.305C57.2385 111.364 57.2484 111.456 57.1638 111.58C57.1349 111.619 57.0974 111.667 57.0514 111.723C57.0054 111.78 56.9576 111.846 56.9079 111.921C56.7923 112.125 56.6047 112.443 56.3453 112.875L55.7748 113.824C55.7393 113.887 55.6807 113.978 55.5991 114.097C55.4819 114.279 55.3952 114.419 55.3389 114.518L54.8753 115.352C54.6723 115.734 54.5175 116.018 54.4107 116.206L54.1706 116.629L53.9739 116.993L53.9605 117.017C53.9309 117.069 53.8941 117.103 53.8503 117.119C53.8116 117.139 53.7729 117.134 53.7341 117.105C53.6976 117.084 53.6741 117.047 53.6635 116.993C53.653 116.938 53.6611 116.888 53.6877 116.841C53.7174 116.789 53.7611 116.724 53.819 116.646C53.8694 116.558 53.9532 116.422 54.0703 116.24C54.2349 115.975 54.3558 115.775 54.4328 115.639C54.6226 115.305 54.7912 115.014 54.9387 114.767C55.0892 114.514 55.2145 114.306 55.3145 114.142C55.4495 113.929 55.5481 113.768 55.6103 113.658C55.6845 113.528 55.8038 113.33 55.9684 113.064C56.2397 112.611 56.4421 112.267 56.5755 112.033L56.5486 112.007L55.9996 112.554L54.5194 114.011C54.2276 114.294 53.7922 114.726 53.213 115.308C52.8841 115.632 52.6284 115.894 52.4457 116.094C52.3923 116.139 52.3355 116.196 52.2754 116.266C52.2071 116.337 52.1349 116.355 52.0589 116.319L52.0511 116.314ZM56.5121 120.05C56.4785 120.024 56.4602 119.99 56.4571 119.947C56.4563 119.912 56.4662 119.876 56.487 119.839C56.4774 119.869 56.5419 119.767 56.6805 119.535C56.8214 119.312 56.9259 119.14 56.9941 119.02C56.9524 118.996 56.8909 118.965 56.8097 118.926C56.7367 118.884 56.6756 118.846 56.6264 118.811C56.4744 118.738 56.2497 118.618 55.9524 118.449L55.5064 118.195C55.3893 118.122 55.323 118.056 55.3072 117.999C55.2966 117.945 55.3258 117.851 55.3947 117.718L56.2503 116.03C56.7392 115.073 57.1167 114.342 57.3827 113.837L57.8928 112.885C57.9106 112.854 57.9532 112.76 58.0205 112.605C58.0961 112.448 58.1665 112.312 58.2317 112.198C58.288 112.098 58.3329 112.038 58.3663 112.015C58.3968 111.998 58.4277 111.998 58.459 112.016C58.4955 112.037 58.5205 112.072 58.534 112.121C58.5498 112.178 58.5265 112.262 58.4643 112.371C58.4027 112.467 58.3194 112.62 58.2142 112.829C58.0689 113.085 57.9096 113.378 57.7362 113.707C57.5658 114.031 57.4491 114.255 57.3862 114.377C57.2988 114.556 57.1654 114.814 56.9861 115.154C56.5712 115.933 56.1049 116.869 55.5873 117.962L56.5106 118.486C56.5722 118.39 56.6333 118.277 56.694 118.146C56.7629 118.012 56.8122 117.919 56.8418 117.867C56.9203 117.705 56.9788 117.59 57.0174 117.522C57.3582 116.874 57.8708 115.874 58.5553 114.524C58.7346 114.185 58.8717 113.931 58.9665 113.764C59.1933 113.341 59.3592 113.025 59.4644 112.815L59.4778 112.792C59.5311 112.698 59.601 112.672 59.6874 112.714L59.7031 112.723C59.7761 112.765 59.7912 112.835 59.7483 112.935C59.6282 113.171 59.5371 113.343 59.4749 113.453C59.0035 114.282 58.6559 114.906 58.4322 115.324C58.2166 115.74 57.9321 116.313 57.5789 117.044L56.7967 118.639C56.9465 118.703 57.0742 118.752 57.18 118.784C57.2746 118.824 57.3309 118.877 57.3489 118.942C57.3699 119.002 57.3541 119.073 57.3014 119.153C57.208 119.293 57.0626 119.501 56.8653 119.775C56.8534 119.796 56.8297 119.838 56.7941 119.9C56.7556 119.968 56.7114 120.015 56.6616 120.042C56.6141 120.077 56.5642 120.08 56.5121 120.05ZM57.9578 119.671C57.9213 119.65 57.8922 119.617 57.8705 119.57C57.8488 119.523 57.8442 119.482 57.8568 119.448C57.9337 119.216 57.9965 119.045 58.0454 118.934L58.262 118.498C58.5679 117.851 58.8349 117.326 59.0632 116.925C59.1847 116.711 59.3248 116.476 59.4835 116.222C59.6451 115.961 59.7582 115.781 59.8227 115.679L60.1308 115.192C60.4377 114.676 60.6637 114.291 60.809 114.035C60.8409 113.991 60.8646 113.949 60.8802 113.91C60.9009 113.873 60.9187 113.842 60.9335 113.816L61.0536 113.605C61.0773 113.563 61.1148 113.539 61.1662 113.534C61.2175 113.529 61.2689 113.548 61.3203 113.591C61.392 113.659 61.3918 113.738 61.3198 113.828C61.2767 113.88 61.2408 113.925 61.2118 113.964C61.1911 114 61.1733 114.031 61.1585 114.058L60.9605 114.369C60.79 114.645 60.661 114.848 60.5734 114.978C60.5119 115.074 60.407 115.228 60.2586 115.441C60.2089 115.516 60.1463 115.608 60.0706 115.717C59.9979 115.82 59.916 115.946 59.8248 116.095C59.6009 116.464 59.4341 116.746 59.3244 116.939C59.191 117.173 59.0928 117.352 59.0299 117.475C58.8809 117.749 58.7043 118.115 58.5 118.571L58.3411 118.906C58.3256 118.945 58.3071 118.99 58.2856 119.04C58.2723 119.087 58.2565 119.134 58.238 119.178L58.2693 119.196C58.2827 119.197 58.4468 119.042 58.7616 118.731C59.0793 118.414 59.3006 118.195 59.4253 118.073L60.6337 116.875L62.4646 115.038C62.6436 114.857 62.7612 114.741 62.8177 114.69C62.8882 114.627 62.9626 114.617 63.0409 114.662C63.1452 114.721 63.1551 114.813 63.0705 114.937C63.0416 114.976 63.0041 115.024 62.9581 115.08C62.9121 115.137 62.8643 115.203 62.8146 115.278C62.699 115.482 62.5114 115.8 62.252 116.232L61.6816 117.181C61.646 117.243 61.5874 117.334 61.5058 117.454C61.3887 117.636 61.3019 117.776 61.2456 117.875L60.7821 118.709C60.579 119.091 60.4242 119.375 60.3174 119.563L60.0773 119.985L59.8806 120.35L59.8672 120.373C59.8376 120.426 59.8008 120.46 59.757 120.476C59.7183 120.496 59.6796 120.491 59.6408 120.462C59.6043 120.441 59.5808 120.404 59.5702 120.349C59.5597 120.295 59.5678 120.245 59.5944 120.198C59.6241 120.145 59.6678 120.081 59.7257 120.003C59.7761 119.914 59.8599 119.779 59.977 119.597C60.1416 119.332 60.2625 119.131 60.3395 118.996C60.5293 118.662 60.6979 118.371 60.8454 118.124C60.9959 117.871 61.1212 117.663 61.2213 117.499C61.3562 117.286 61.4548 117.124 61.5171 117.015C61.5912 116.885 61.7105 116.687 61.8751 116.421C62.1464 115.968 62.3488 115.624 62.4822 115.39L62.4553 115.364L61.9063 115.911L60.4261 117.368C60.1343 117.651 59.6989 118.083 59.1198 118.665C58.7908 118.989 58.5351 119.251 58.3525 119.45C58.299 119.496 58.2422 119.553 58.1821 119.623C58.1138 119.694 58.0416 119.712 57.9656 119.676L57.9578 119.671ZM61.2054 121.517C61.1688 121.496 61.1397 121.462 61.118 121.415C61.0963 121.369 61.0918 121.328 61.1044 121.294C61.1812 121.061 61.2441 120.89 61.2929 120.78L61.5096 120.344C61.8154 119.697 62.0825 119.172 62.3107 118.77C62.4323 118.556 62.5724 118.322 62.731 118.067C62.8927 117.807 63.0057 117.626 63.0702 117.525L63.3783 117.038C63.6852 116.522 63.9113 116.136 64.0565 115.881C64.0884 115.837 64.1122 115.795 64.1277 115.755C64.1485 115.719 64.1662 115.688 64.1811 115.661L64.3011 115.45C64.3248 115.408 64.3624 115.385 64.4137 115.38C64.465 115.374 64.5164 115.393 64.5679 115.436C64.6395 115.504 64.6393 115.584 64.5673 115.674C64.5243 115.725 64.4883 115.771 64.4594 115.809C64.4386 115.846 64.4208 115.877 64.406 115.903L64.208 116.215C64.0375 116.491 63.9085 116.694 63.821 116.823C63.7595 116.919 63.6545 117.074 63.5062 117.286C63.4565 117.361 63.3938 117.454 63.3182 117.562C63.2455 117.666 63.1635 117.792 63.0723 117.94C62.8485 118.31 62.6817 118.591 62.572 118.784C62.4386 119.019 62.3404 119.198 62.2774 119.321C62.1285 119.595 61.9519 119.96 61.7475 120.417L61.5887 120.751C61.5731 120.791 61.5546 120.835 61.5332 120.885C61.5199 120.933 61.504 120.979 61.4855 121.024L61.5168 121.042C61.5302 121.042 61.6943 120.887 62.0091 120.576C62.3269 120.26 62.5482 120.041 62.6729 119.918L63.8813 118.721L65.7122 116.884C65.8911 116.702 66.0088 116.586 66.0652 116.536C66.1358 116.472 66.2102 116.463 66.2884 116.507C66.3928 116.566 66.4026 116.658 66.3181 116.783C66.2892 116.822 66.2517 116.869 66.2057 116.926C66.1597 116.983 66.1118 117.049 66.0621 117.124C65.9465 117.327 65.759 117.645 65.4995 118.077L64.9291 119.026C64.8935 119.089 64.8349 119.18 64.7534 119.299C64.6362 119.481 64.5495 119.622 64.4931 119.721L64.0296 120.555C63.8266 120.936 63.6717 121.221 63.565 121.409L63.3249 121.831L63.1281 122.195L63.1148 122.219C63.0851 122.271 63.0484 122.305 63.0045 122.322C62.9659 122.341 62.9272 122.337 62.8884 122.308C62.8519 122.287 62.8283 122.249 62.8178 122.195C62.8072 122.141 62.8153 122.09 62.842 122.043C62.8716 121.991 62.9154 121.926 62.9733 121.849C63.0237 121.76 63.1074 121.625 63.2246 121.443C63.3892 121.178 63.51 120.977 63.5871 120.841C63.7768 120.508 63.9455 120.217 64.093 119.97C64.2434 119.717 64.3687 119.509 64.4688 119.345C64.6038 119.131 64.7024 118.97 64.7646 118.861C64.8387 118.73 64.9581 118.532 65.1227 118.267C65.394 117.814 65.5963 117.47 65.7297 117.235L65.7029 117.21L65.1538 117.757L63.6737 119.214C63.3819 119.496 62.9464 119.929 62.3673 120.511C62.0384 120.834 61.7826 121.096 61.6 121.296C61.5465 121.342 61.4897 121.399 61.4296 121.468C61.3613 121.54 61.2892 121.558 61.2132 121.521L61.2054 121.517Z" fill="black"/>
<path d="M88.1038 107.623C87.987 107.65 87.871 107.622 87.7559 107.539C87.6378 107.444 87.5577 107.305 87.5154 107.123C87.4338 106.772 87.3579 106.475 87.2875 106.231C87.2142 105.975 87.1498 105.757 87.0946 105.578C86.8494 104.759 86.6784 104.142 86.5818 103.726C86.3825 102.869 86.1637 102.016 85.9255 101.168C85.7576 100.564 85.5797 99.9757 85.3918 99.4034C85.3586 99.2605 85.2988 99.0622 85.2125 98.8085C85.1883 98.7046 85.1581 98.5748 85.1219 98.4189C85.0986 98.2601 85.0579 98.0848 84.9996 97.893C84.7402 96.954 84.3381 95.5485 83.7933 93.6766C83.735 93.4848 83.7358 93.3409 83.7956 93.2449C83.8554 93.1488 83.9862 93.0637 84.1879 92.9894C84.6953 92.8166 85.1603 92.6675 85.5828 92.5418C86.0183 92.4132 86.306 92.3258 86.4458 92.2796C86.9454 92.1908 87.253 92.3657 87.3686 92.8042C87.9985 95.3955 88.4775 97.3375 88.8054 98.6302C89.054 99.6401 89.3315 100.657 89.638 101.681C89.9427 102.815 90.2623 103.924 90.5969 105.01L90.7627 105.547C90.8292 105.832 90.9136 106.107 91.0159 106.371L91.0295 106.429C91.0929 106.702 90.9948 106.868 90.7351 106.929C90.6052 106.959 90.5102 106.933 90.4501 106.851C90.4 106.753 90.3477 106.588 90.2934 106.354C90.1877 105.899 90.0001 105.211 89.7308 104.288C89.6725 104.096 89.6036 103.859 89.5242 103.576C89.4418 103.28 89.3553 102.938 89.2647 102.548C89.1982 102.262 89.0856 101.837 88.9268 101.271L88.5694 99.9992L88.1499 98.3719C87.9597 97.5538 87.7499 96.7401 87.5207 95.931C87.4603 95.6713 87.3537 95.2717 87.2009 94.7323C86.9877 93.9331 86.8328 93.3258 86.7362 92.9102C86.6583 92.9283 86.5169 92.968 86.3122 93.0293C86.1074 93.0906 85.9366 93.1509 85.7998 93.2101L84.4153 93.6141L84.8859 95.3732C84.9925 95.7728 85.1384 96.3412 85.3235 97.0784C85.5216 97.8127 85.6956 98.443 85.8453 98.9694C86.0102 99.5607 86.2585 100.393 86.59 101.466L86.9624 102.714L87.2278 103.679C87.4531 104.53 87.6331 105.186 87.7678 105.648L87.9322 106.266C87.9784 106.406 88.0347 106.619 88.1012 106.905L88.1872 107.275C88.2144 107.392 88.221 107.479 88.2071 107.537C88.2032 107.579 88.1688 107.608 88.1038 107.623ZM99.4411 104.391C99.5033 104.541 99.5075 104.677 99.4537 104.799C99.413 104.918 99.3291 104.999 99.2023 105.042C99.0754 105.085 98.964 105.077 98.868 105.017C98.7819 104.941 98.7207 104.826 98.6845 104.67L98.396 103.34C98.3425 103.052 98.2478 102.615 98.112 102.031L97.7727 100.837C97.2599 98.9846 96.8743 97.5616 96.6158 96.5677C96.3935 95.7296 96.0339 94.3006 95.5368 92.2806L95.4281 91.8131L95.2999 91.3501L95.2152 90.8975C95.1548 90.6378 95.232 90.4693 95.4467 90.392L95.4857 90.3829C95.5896 90.3588 95.6896 90.3766 95.7856 90.4364C95.8946 90.4932 95.9627 90.58 95.9899 90.6969L96.1475 91.728L97.1735 96.5817C97.1735 96.5817 97.3353 97.1601 97.6591 98.3168C97.987 99.6095 98.1896 100.363 98.2669 100.578L99.2318 103.844C99.3121 104.072 99.3819 104.254 99.4411 104.391ZM95.8061 99.1789C96.2589 99.7718 96.5864 100.503 96.7887 101.373C96.9518 102.075 96.9486 102.856 96.7791 103.716C96.6722 104.316 96.4706 104.774 96.1743 105.089C95.875 105.391 95.4203 105.702 94.8102 106.022C94.7612 106.047 94.6848 106.072 94.5809 106.096C94.2303 106.178 94.0017 106.019 93.8951 105.619C93.8317 105.346 93.7556 104.96 93.6668 104.461L93.5549 103.891L92.7518 100.526L92.2961 98.7425C92.1995 98.3269 92.0476 97.7326 91.8404 96.9594C91.5798 95.8975 91.1881 94.4485 90.6654 92.6126C90.6693 92.5706 90.6447 92.4942 90.5916 92.3833C90.5484 92.2565 90.5162 92.1476 90.4951 92.0567C90.4558 91.8879 90.4657 91.7829 90.5246 91.7418C90.5783 91.6198 90.6571 91.5467 90.761 91.5226C90.839 91.5045 90.9194 91.5268 91.0025 91.5896C91.0856 91.6525 91.1472 91.7408 91.1873 91.8547L91.5764 93.2631C91.683 93.6627 91.8017 94.1142 91.9325 94.6177C92.0632 95.1212 92.2106 95.6961 92.3746 96.3424C92.47 96.635 92.5856 97.0736 92.7215 97.658C94.0196 97.5889 95.0478 98.0958 95.8061 99.1789ZM96.1829 103.095C96.2316 102.304 96.2046 101.687 96.1019 101.246C95.9751 100.7 95.7444 100.179 95.4097 99.6817C95.0881 99.1816 94.7267 98.8344 94.3257 98.6402C93.9216 98.433 93.4362 98.3474 92.8697 98.3833L93.7978 102.11L93.9169 102.534C94.2216 103.668 94.4292 104.413 94.5398 104.771L94.5533 104.829C94.6017 105.037 94.7102 105.122 94.8791 105.082L95.1038 104.989C95.7208 104.64 96.0805 104.009 96.1829 103.095ZM103.307 104.006C103.005 104.062 102.791 104.057 102.666 103.99C102.538 103.91 102.433 103.723 102.351 103.427L101.626 100.577L101.11 98.6231C100.924 97.9409 100.664 96.9404 100.33 95.6218C100.169 94.9885 99.9395 94.0289 99.6406 92.7432C99.5279 92.3177 99.372 91.6764 99.1727 90.8192C99.0362 90.4677 98.9513 90.2205 98.9181 90.0776C98.8849 89.9348 98.8772 89.8133 98.895 89.7134C98.9258 89.6104 98.9867 89.5483 99.0776 89.5272C99.2464 89.4879 99.3689 89.5142 99.445 89.606C99.5181 89.6849 99.5742 89.8087 99.6135 89.9775C99.9426 91.3931 100.182 92.453 100.332 93.1573C100.486 93.8197 100.595 94.3147 100.657 94.6424L100.982 96.1274C101.16 96.8936 101.346 97.5759 101.54 98.1742C101.528 98.1222 101.736 98.8405 102.164 100.329C102.317 100.868 102.494 101.484 102.696 102.176C102.898 102.869 103.02 103.272 103.06 103.385C103.444 103.392 103.825 103.351 104.202 103.264C104.41 103.215 104.59 103.167 104.743 103.117C104.895 103.068 105.022 103.025 105.123 102.988L103.242 95.8688C102.506 93.2337 102.158 92.0005 102.197 92.1693L101.456 89.4258L101.387 89.216C101.36 89.0992 101.379 89.0057 101.445 88.9356C101.498 88.8686 101.544 88.8305 101.583 88.8215C101.635 88.8094 101.696 88.8088 101.767 88.8196C101.867 88.8375 101.941 88.8888 101.988 88.9737C102.032 89.0456 102.071 89.1529 102.104 89.2958C102.167 89.5685 102.23 89.8073 102.291 90.012C102.349 90.2038 102.401 90.3696 102.448 90.5095C102.5 90.6753 102.57 90.919 102.659 91.2407C102.744 91.5493 102.814 91.8205 102.868 92.0543C103.038 92.7816 103.278 93.7865 103.59 95.0692C103.912 96.3359 104.201 97.4597 104.456 98.4407L105.747 102.843C105.882 102.839 106.093 102.803 106.379 102.737C106.743 102.652 107.063 102.557 107.339 102.452C107.541 102.378 107.613 102.217 107.556 101.97L107.025 99.7736C106.798 98.7995 106.442 97.3286 105.957 95.3606L105.511 93.6164C105.309 92.7463 105.087 91.8807 104.845 91.0196L104.276 89.0988C104.264 89.0468 104.223 88.9605 104.154 88.8397C104.095 88.7028 104.057 88.602 104.042 88.537C104.006 88.3812 104.045 88.2557 104.16 88.1606C104.183 88.1415 104.214 88.1275 104.253 88.1184C104.383 88.0882 104.511 88.1405 104.639 88.2752C104.712 88.354 104.765 88.4649 104.798 88.6077C105.373 90.7874 105.853 92.7019 106.236 94.3513C106.324 94.7279 106.481 95.3757 106.709 96.2948C106.933 97.2008 107.173 98.1443 107.428 99.1253C107.614 99.8076 107.912 100.792 108.321 102.08C108.361 102.194 108.341 102.342 108.26 102.525C108.192 102.705 108.087 102.839 107.943 102.928C107.747 103.028 107.338 103.15 106.714 103.295C106.26 103.401 105.588 103.544 104.699 103.723C103.965 103.866 103.501 103.96 103.307 104.006ZM114.524 101.562C114.2 101.637 113.898 101.605 113.619 101.464C113.34 101.324 113.106 101.084 112.917 100.744C112.836 100.571 112.763 100.376 112.699 100.158C112.632 99.9277 112.589 99.7734 112.571 99.6954L112.136 98.0922C111.893 97.1631 111.695 96.4289 111.542 95.8895C111.472 95.6458 111.377 95.4146 111.258 95.1959C111.16 95.0132 111.057 94.8935 110.948 94.8367C110.849 94.7639 110.722 94.7456 110.566 94.7818C110.436 94.812 110.291 94.8662 110.131 94.9445L110.39 96.0548C110.492 96.4964 110.678 97.1787 110.948 98.1016C110.996 98.3094 111.084 98.6311 111.213 99.0666C111.655 100.497 111.916 101.381 111.994 101.719C112.009 101.961 111.926 102.104 111.744 102.146C111.498 102.204 111.346 102.109 111.288 101.862C111.104 101.07 110.96 100.481 110.857 100.094C110.591 99.1291 110.348 98.1726 110.128 97.2246L109.64 95.3051L108.952 92.6109C108.867 92.3022 108.749 91.8232 108.598 91.1739L107.942 88.2668L107.85 87.9596C107.829 87.8687 107.829 87.7798 107.85 87.6928C107.844 87.6668 107.857 87.6363 107.89 87.6013C107.92 87.5533 107.98 87.5187 108.071 87.4975C108.23 87.4743 108.343 87.578 108.411 87.8088C108.453 87.9906 108.535 88.2863 108.658 88.6958L108.886 89.5874C108.96 89.967 109.11 90.6988 109.335 91.7828C109.559 92.8667 109.722 93.5955 109.822 93.9691C109.862 94.1379 109.946 94.2072 110.076 94.177C110.18 94.1529 110.288 94.0867 110.4 93.9786C110.699 93.6763 110.776 93.097 110.632 92.2408C110.586 91.9231 110.541 91.6733 110.499 91.4915C110.443 91.1348 110.385 90.7652 110.323 90.3825C110.262 89.9998 110.2 89.6172 110.138 89.2345C110.032 88.6021 110.14 87.9473 110.462 87.2702C110.589 86.9942 110.796 86.8229 111.082 86.7565C111.263 86.7142 111.428 86.7169 111.576 86.7647C111.747 86.7934 111.848 86.8726 111.878 87.0025C111.905 87.1194 111.889 87.1984 111.83 87.2394C111.785 87.2775 111.7 87.2971 111.577 87.2983C111.412 87.2956 111.284 87.3048 111.194 87.3259C111.064 87.3561 110.967 87.4128 110.905 87.4958C110.852 87.5629 110.803 87.6769 110.758 87.8379C110.639 88.2078 110.594 88.6017 110.622 89.0193C110.648 89.424 110.713 89.9086 110.817 90.4731C110.881 90.8688 110.936 91.164 110.981 91.3588C111.006 91.4627 111.043 91.6525 111.093 91.9282C111.141 92.191 111.182 92.4553 111.216 92.721C111.299 93.5504 111.103 94.0889 110.627 94.3365C110.938 94.264 111.183 94.3166 111.361 94.4942C111.54 94.6718 111.721 94.9513 111.905 95.3328C111.99 95.5185 112.086 95.8451 112.195 96.3127L112.507 97.6568C112.599 97.9915 112.76 98.5359 112.99 99.29C113.02 99.4199 113.084 99.6376 113.183 99.9433C113.281 100.249 113.439 100.513 113.655 100.737C113.871 100.96 114.103 101.044 114.349 100.986C114.375 100.98 114.437 100.952 114.535 100.902C114.673 100.788 114.8 100.717 114.917 100.69C115.047 100.66 115.148 100.712 115.22 100.845C115.257 100.946 115.242 101.059 115.176 101.184C115.106 101.296 115.009 101.38 114.885 101.437C114.709 101.505 114.589 101.546 114.524 101.562ZM120.588 100.069C120.484 100.094 120.386 100.082 120.293 100.035C120.212 99.9856 120.162 99.9152 120.141 99.8243L119.547 97.2724C119.511 97.1166 119.147 97.0507 118.454 97.0749C117.762 97.099 117.201 97.1609 116.773 97.2605C116.747 97.2666 116.724 97.3746 116.704 97.5845C116.698 97.7913 116.692 97.9433 116.687 98.0402C116.675 98.7548 116.674 99.5148 116.683 100.32L116.685 100.772C116.684 100.881 116.631 100.948 116.527 100.973C116.423 100.997 116.318 100.987 116.212 100.943C116.119 100.896 116.062 100.828 116.041 100.737L116.051 100.693L116.047 100.674L116.035 99.6498C116.048 99.0032 116.046 98.3741 116.027 97.7625C116.003 97.0699 116 96.6187 116.02 96.4088C116.024 95.9561 115.983 94.8364 115.896 93.0496L115.864 92.3796C115.736 90.3011 115.677 88.987 115.686 88.4374C115.679 88.1106 115.688 87.6224 115.715 86.9727C115.72 86.6979 115.75 86.417 115.807 86.1301C115.872 85.8821 115.944 85.7491 116.022 85.731C116.23 85.6827 116.394 85.7129 116.515 85.8216C116.607 85.9234 116.854 86.5436 117.256 87.6822C117.67 88.8178 118.069 89.9709 118.45 91.1416L119.455 94.3164C119.585 94.8748 119.821 95.7099 120.161 96.8217C120.505 97.9464 120.742 98.788 120.871 99.3464L120.89 99.4243C120.923 99.5672 120.934 99.7016 120.922 99.8275C120.894 99.9435 120.783 100.024 120.588 100.069ZM118.934 96.4909C119.194 96.4305 119.309 96.3354 119.279 96.2055C119.092 95.4003 118.791 94.3135 118.377 92.9451C117.96 91.5636 117.576 90.3525 117.224 89.3117C117.092 88.8632 116.924 88.3753 116.719 87.848L116.465 87.1064C116.468 87.1194 116.438 87.051 116.376 86.9012L116.283 86.6765C116.245 86.9863 116.233 87.4066 116.247 87.9372C116.274 88.4649 116.316 89.0849 116.372 89.7974C116.51 91.8049 116.582 93.3213 116.588 94.3467L116.567 95.0498C116.523 95.7444 116.54 96.2606 116.619 96.5982L116.646 96.7151C117.259 96.764 117.936 96.7025 118.677 96.5303L118.794 96.5032C118.836 96.5071 118.882 96.503 118.934 96.4909Z" fill="black"/>
<path d="M75.8172 60.6284C75.7715 60.6379 75.7225 60.6311 75.67 60.6079C75.6175 60.5847 75.584 60.5543 75.5693 60.5164C75.4629 60.2662 75.3897 60.0771 75.3495 59.9493L75.2105 59.4266C74.9906 58.662 74.8285 58.0284 74.7242 57.5258C74.6687 57.2581 74.6136 56.9598 74.5589 56.6307C74.5029 56.2951 74.4647 56.0613 74.4441 55.9294L74.3435 55.2966C74.2211 54.6412 74.1267 54.1535 74.0604 53.8336C74.0547 53.7735 74.0439 53.7213 74.0279 53.677C74.0184 53.6313 74.0103 53.5921 74.0035 53.5595L73.9487 53.2951C73.9378 53.2429 73.9519 53.1957 73.9908 53.1536C74.0297 53.1115 74.0864 53.0895 74.161 53.0876C74.2708 53.0921 74.3288 53.1584 74.335 53.2864C74.3368 53.361 74.3399 53.425 74.3442 53.4786C74.3537 53.5243 74.3618 53.5634 74.3686 53.5961L74.4323 54.0016C74.4923 54.3568 74.5334 54.6206 74.5556 54.793C74.5748 54.9184 74.6005 55.1242 74.6326 55.4103C74.6464 55.5095 74.6616 55.6323 74.6784 55.7787C74.6937 55.9184 74.7178 56.0837 74.7506 56.2743C74.835 56.747 74.9023 57.1041 74.9524 57.3457C75.0133 57.6394 75.0626 57.8607 75.1003 58.0095C75.1772 58.3475 75.298 58.7821 75.4626 59.313L75.5753 59.7084C75.5913 59.7527 75.6087 59.8036 75.6274 59.861C75.6513 59.9105 75.6719 59.9607 75.6893 60.0116L75.7284 60.0034C75.7401 59.9942 75.7632 59.7443 75.7976 59.2538C75.8306 58.7567 75.8543 58.4113 75.8686 58.2177L75.9983 56.3321L76.1778 53.4557C76.194 53.1731 76.2071 52.99 76.217 52.9062C76.2293 52.8015 76.2844 52.739 76.3823 52.7187C76.5129 52.6916 76.5886 52.7611 76.6094 52.927C76.6137 52.9805 76.6174 53.0478 76.6206 53.1289C76.6238 53.2099 76.6323 53.3001 76.6461 53.3993C76.6989 53.6539 76.7756 54.0567 76.8763 54.6078L77.0968 55.8182C77.1131 55.8965 77.1309 56.0154 77.1504 56.1748C77.1861 56.4125 77.2168 56.5933 77.2425 56.7174L77.4676 57.7532C77.5782 58.2205 77.6578 58.5717 77.7066 58.8067L77.8163 59.3354L77.9195 59.7838L77.9256 59.8132C77.9391 59.8784 77.9336 59.934 77.9091 59.98C77.8911 60.0246 77.8554 60.049 77.8018 60.0533C77.7561 60.0628 77.7089 60.0487 77.6603 60.0112C77.6116 59.9736 77.5812 59.9254 77.569 59.8667C77.5555 59.8014 77.5444 59.7152 77.5358 59.6081C77.5128 59.4971 77.4834 59.3227 77.4477 59.085C77.3904 58.7429 77.3441 58.487 77.3089 58.3172C77.2222 57.8995 77.1496 57.5332 77.0912 57.2186C77.0313 56.8974 76.983 56.6316 76.9462 56.4214C76.9024 56.1445 76.8663 55.9375 76.8378 55.8005C76.804 55.6373 76.7583 55.3846 76.701 55.0424C76.5949 54.4653 76.5113 54.0299 76.4504 53.7361L76.4092 53.7344L76.3526 54.5939L76.1867 56.8956C76.1507 57.3456 76.1046 58.0258 76.0483 58.9362C76.0114 59.4477 75.9902 59.8538 75.9845 60.1546C75.9733 60.2318 75.968 60.3214 75.9687 60.4234C75.9643 60.5332 75.9171 60.6009 75.827 60.6264L75.8172 60.6284ZM80.8255 59.6609C80.6427 59.6988 80.4353 59.667 80.2031 59.5654C79.971 59.4637 79.7935 59.3303 79.6707 59.1652C79.5572 59.0117 79.3639 58.4901 79.0908 57.6003C78.8242 56.7092 78.6449 56.0418 78.5528 55.5979L78.4451 55.0789C78.4075 54.9301 78.3697 54.7644 78.3318 54.5816C78.2613 54.2421 78.2112 53.9019 78.1813 53.5609C78.1735 53.3923 78.1771 53.2451 78.1919 53.1195C78.2132 52.9925 78.2515 52.8654 78.3068 52.7382C78.4044 52.4865 78.5893 52.2949 78.8616 52.1635C79.0036 52.0932 79.166 52.0391 79.3488 52.0012C79.4728 51.9755 79.6043 51.9856 79.7432 52.0317C79.8887 52.0764 79.9716 52.1477 79.9919 52.2457C80.0068 52.3175 79.962 52.3642 79.8576 52.3859C79.8184 52.394 79.7386 52.3867 79.6181 52.3641C79.5107 52.3387 79.4179 52.3341 79.3395 52.3504C79.1568 52.3883 78.9984 52.462 78.8646 52.5714C78.7358 52.673 78.6419 52.7947 78.5828 52.9363C78.5327 53.0556 78.5004 53.2121 78.4861 53.4057C78.4718 53.5993 78.4771 53.7889 78.502 53.9744C78.5162 54.1416 78.5471 54.3395 78.5945 54.5679L78.718 55.1142C78.757 55.2695 78.7955 55.4386 78.8334 55.6214C78.9269 56.0718 79.11 56.7248 79.3829 57.5806C79.6557 58.4363 79.8488 58.924 79.9621 59.0434C80.0661 59.1512 80.2 59.2222 80.3637 59.2563C80.5339 59.2891 80.7039 59.2879 80.8736 59.2526C81.1739 59.1904 81.3827 59.0483 81.5001 58.8265C81.5426 58.736 81.5965 58.684 81.6617 58.6704C81.7205 58.6582 81.7593 58.6978 81.7783 58.7892C81.8027 58.9067 81.7884 59.0186 81.7356 59.1249C81.6814 59.2246 81.597 59.3102 81.4825 59.3817C81.2926 59.5164 81.0736 59.6095 80.8255 59.6609ZM84.3464 58.8079C84.1832 58.8418 84.0327 58.822 83.8949 58.7484C83.7571 58.6749 83.6431 58.5521 83.553 58.3802C83.5145 58.2929 83.4804 58.1944 83.4509 58.0848C83.42 57.9686 83.4004 57.891 83.3923 57.8518L83.1944 57.0452C83.0838 56.5779 82.9936 56.2086 82.9236 55.9371C82.8914 55.8144 82.8467 55.6977 82.7897 55.587C82.7433 55.4945 82.6932 55.4334 82.6393 55.4037C82.5907 55.3662 82.5272 55.3555 82.4489 55.3717C82.3836 55.3853 82.3106 55.4107 82.2298 55.4478L82.3456 56.006C82.3916 56.2279 82.4764 56.5712 82.6 57.0357C82.6217 57.1402 82.6621 57.302 82.7212 57.5212C82.9251 58.2415 83.0446 58.6865 83.0798 58.8562C83.0846 58.9778 83.0413 59.048 82.9499 59.067C82.8259 59.0927 82.751 59.0436 82.7253 58.9196C82.6427 58.5214 82.5778 58.225 82.5307 58.0306C82.4095 57.5451 82.2995 57.064 82.2007 56.5875L81.98 55.6222L81.6683 54.2673C81.6292 54.112 81.5759 53.8711 81.5082 53.5447L81.2153 52.0838L81.173 51.9291C81.1635 51.8835 81.1645 51.839 81.176 51.7958C81.1732 51.7827 81.1803 51.7676 81.1972 51.7505C81.2127 51.7269 81.2433 51.7103 81.289 51.7008C81.3687 51.6911 81.424 51.7443 81.4549 51.8604C81.4739 51.9518 81.5115 52.1006 81.5679 52.3068L81.6712 52.7552C81.7039 52.9458 81.77 53.3134 81.8693 53.8579C81.9686 54.4024 82.0412 54.7687 82.087 54.9566C82.1046 55.0415 82.1461 55.0771 82.2113 55.0636C82.2636 55.0527 82.3182 55.021 82.3754 54.9683C82.5286 54.8207 82.5743 54.5321 82.5124 54.1024C82.4929 53.943 82.4737 53.8176 82.4548 53.7263C82.4312 53.5473 82.4064 53.3618 82.3802 53.1698C82.354 52.9778 82.3277 52.7858 82.3015 52.5938C82.2561 52.2764 82.3178 51.9504 82.4867 51.6158C82.5537 51.4793 82.659 51.3962 82.8027 51.3664C82.894 51.3474 82.9764 51.3508 83.0498 51.3764C83.1349 51.3928 83.1843 51.4336 83.1978 51.4989C83.21 51.5576 83.2011 51.5969 83.1712 51.6167C83.1478 51.6352 83.1054 51.644 83.0439 51.6431C82.9615 51.6398 82.8975 51.6429 82.8518 51.6524C82.7865 51.6659 82.7377 51.6931 82.7053 51.7338C82.678 51.7667 82.6523 51.8231 82.628 51.903C82.564 52.0865 82.5366 52.2829 82.5459 52.492C82.5539 52.6946 82.5805 52.9376 82.6257 53.221C82.6533 53.4195 82.6772 53.5678 82.6975 53.6657C82.7083 53.7179 82.7247 53.8132 82.7466 53.9517C82.7672 54.0836 82.7845 54.2162 82.7985 54.3494C82.8302 54.765 82.7256 55.0318 82.4846 55.1499C82.6412 55.1174 82.763 55.1466 82.85 55.2375C82.9369 55.3284 83.0242 55.4703 83.1119 55.6631C83.1518 55.757 83.1961 55.9214 83.2449 56.1564L83.385 56.832C83.4268 57.0004 83.5006 57.2744 83.6066 57.6542C83.6202 57.7194 83.6497 57.8291 83.6953 57.983C83.7408 58.137 83.8163 58.2711 83.9217 58.3854C84.0272 58.4997 84.1419 58.544 84.2659 58.5183C84.279 58.5155 84.3102 58.5022 84.3598 58.4784C84.43 58.4229 84.4944 58.3891 84.5532 58.377C84.6185 58.3634 84.6684 58.3905 84.7028 58.4583C84.7202 58.5091 84.7114 58.5654 84.6766 58.6271C84.6404 58.6823 84.591 58.7232 84.5284 58.7498C84.4397 58.7818 84.3791 58.8012 84.3464 58.8079ZM85.8384 58.4576C85.7992 58.4657 85.762 58.4666 85.7266 58.4603C85.6899 58.4475 85.6689 58.4281 85.6635 58.402C85.6325 58.2858 85.6186 58.1695 85.6217 58.0532C85.6235 57.9302 85.6327 57.7615 85.6495 57.547C85.6654 57.3939 85.6719 57.2938 85.6689 57.2468C85.681 57.1081 85.6784 56.8329 85.661 56.4211C85.6512 56.144 85.6477 55.9303 85.6506 55.7799C85.5495 55.7192 85.4698 55.6472 85.4117 55.5639C85.3601 55.4793 85.3144 55.3901 85.2745 55.2962C85.2411 55.201 85.2132 55.1319 85.1906 55.0889C84.9075 54.4464 84.5714 53.6957 84.1821 52.8368C84.1145 52.7079 83.9748 52.4611 83.763 52.0965C83.7285 52.0288 83.6855 51.9526 83.6339 51.868L83.4771 51.6043L83.4331 51.4909C83.4223 51.4387 83.424 51.3975 83.4381 51.3673C83.4575 51.3293 83.4834 51.3069 83.5161 51.3001C83.5553 51.292 83.6004 51.2962 83.6515 51.3128C83.6961 51.3308 83.7277 51.3685 83.7465 51.4259C83.7703 51.4754 83.7869 51.506 83.7961 51.5177C83.8865 51.7237 83.9681 51.8872 84.0409 52.0082C84.1693 52.2335 84.2296 52.3436 84.2217 52.3384C84.2866 52.4543 84.3588 52.5891 84.4384 52.7428L84.9519 53.7904C85.1831 54.3143 85.3533 54.7079 85.4624 54.9713C85.4852 55.0482 85.5426 55.1282 85.6347 55.2113L85.6427 54.9543C85.6284 54.787 85.6228 54.6452 85.6259 54.5288C85.6267 54.2699 85.609 53.9877 85.5728 53.682C85.5545 53.4951 85.5379 53.2841 85.5232 53.0488C85.507 52.8071 85.494 52.6294 85.484 52.5157C85.4635 52.0229 85.4317 51.5904 85.3885 51.218L85.3783 51.1691L85.3621 51.0907C85.3526 51.0451 85.3491 51.0117 85.3515 50.9908C85.3499 50.9503 85.3569 50.9182 85.3724 50.8946C85.3931 50.863 85.4198 50.8439 85.4524 50.8371C85.4916 50.829 85.5269 50.8353 85.5585 50.856C85.6215 50.8973 85.6639 50.9703 85.6855 51.0747L85.7219 51.4961L85.8686 53.0895C85.8926 53.3365 85.9056 53.6946 85.9077 54.164C85.9052 54.5458 85.9098 54.8308 85.9217 55.019C85.9461 55.3339 85.9675 55.8469 85.9856 56.5581C86.016 57.328 86.0154 57.883 85.9838 58.2231C85.9911 58.3238 85.9615 58.3946 85.8951 58.4356L85.8384 58.4576ZM89.5652 57.8478C89.3824 57.8858 89.175 57.8539 88.9428 57.7523C88.7107 57.6506 88.5332 57.5172 88.4104 57.3521C88.2969 57.1986 88.1036 56.677 87.8305 55.7873C87.5639 54.8962 87.3846 54.2287 87.2925 53.7848L87.1848 53.2658C87.1472 53.1171 87.1094 52.9513 87.0715 52.7685C87.001 52.4291 86.9509 52.0888 86.921 51.7478C86.9132 51.5792 86.9168 51.4321 86.9316 51.3064C86.9529 51.1795 86.9912 51.0524 87.0465 50.9251C87.1441 50.6734 87.329 50.4818 87.6013 50.3505C87.7433 50.2801 87.9057 50.226 88.0885 50.1881C88.2125 50.1624 88.344 50.1726 88.4829 50.2186C88.6284 50.2633 88.7113 50.3347 88.7316 50.4326C88.7465 50.5044 88.7017 50.5511 88.5973 50.5728C88.5581 50.5809 88.4783 50.5736 88.3578 50.551C88.2504 50.5256 88.1576 50.521 88.0792 50.5373C87.8965 50.5752 87.7381 50.6489 87.6042 50.7584C87.4755 50.86 87.3816 50.9816 87.3225 51.1232C87.2723 51.2425 87.2401 51.399 87.2258 51.5926C87.2115 51.7862 87.2168 51.9758 87.2417 52.1613C87.2559 52.3285 87.2868 52.5264 87.3342 52.7548L87.4577 53.3011C87.4967 53.4565 87.5352 53.6255 87.5731 53.8083C87.6666 54.2587 87.8497 54.9118 88.1226 55.7675C88.3954 56.6233 88.5885 57.1109 88.7018 57.2304C88.8058 57.3381 88.9397 57.4091 89.1034 57.4432C89.2736 57.476 89.4436 57.4748 89.6133 57.4396C89.9136 57.3773 90.1224 57.2352 90.2398 57.0134C90.2823 56.9229 90.3362 56.8709 90.4014 56.8573C90.4602 56.8451 90.499 56.8847 90.518 56.9761C90.5424 57.0936 90.5281 57.2055 90.4753 57.3118C90.4211 57.4116 90.3367 57.4971 90.2222 57.5686C90.0323 57.7033 89.8133 57.7964 89.5652 57.8478ZM92.7972 57.1774C92.6144 57.2153 92.4069 57.1834 92.1748 57.0818C91.9426 56.9802 91.7652 56.8468 91.6424 56.6816C91.5289 56.5281 91.3355 56.0065 91.0624 55.1168C90.7959 54.2257 90.6166 53.5582 90.5245 53.1143L90.4168 52.5953C90.3791 52.4466 90.3413 52.2808 90.3034 52.098C90.233 51.7586 90.1828 51.4183 90.1529 51.0773C90.1452 50.9087 90.1487 50.7616 90.1635 50.6359C90.1848 50.509 90.2232 50.3819 90.2785 50.2547C90.376 50.0029 90.561 49.8114 90.8333 49.68C90.9753 49.6097 91.1377 49.5555 91.3205 49.5176C91.4445 49.4919 91.576 49.5021 91.7149 49.5481C91.8603 49.5929 91.9432 49.6642 91.9635 49.7621C91.9784 49.8339 91.9337 49.8806 91.8292 49.9023C91.7901 49.9104 91.7102 49.9032 91.5898 49.8805C91.4824 49.8551 91.3895 49.8505 91.3112 49.8668C91.1284 49.9047 90.9701 49.9784 90.8362 50.0879C90.7075 50.1895 90.6136 50.3111 90.5545 50.4527C90.5043 50.5721 90.4721 50.7285 90.4578 50.9221C90.4435 51.1157 90.4488 51.3053 90.4736 51.4908C90.4879 51.658 90.5187 51.8559 90.5661 52.0844L90.6897 52.6307C90.7287 52.786 90.7672 52.955 90.8051 53.1378C90.8985 53.5882 91.0817 54.2413 91.3545 55.097C91.6274 55.9528 91.8204 56.4404 91.9337 56.5599C92.0378 56.6676 92.1717 56.7386 92.3354 56.7727C92.5056 56.8055 92.6755 56.8043 92.8452 56.7691C93.1455 56.7068 93.3544 56.5647 93.4717 56.3429C93.5142 56.2524 93.5681 56.2004 93.6334 56.1868C93.6922 56.1747 93.731 56.2143 93.75 56.3056C93.7743 56.4231 93.7601 56.535 93.7073 56.6413C93.6531 56.7411 93.5687 56.8267 93.4541 56.8981C93.2642 57.0328 93.0452 57.1259 92.7972 57.1774ZM95.6465 56.4841C95.5813 56.4977 95.5276 56.485 95.4855 56.446C95.442 56.4006 95.4128 56.342 95.3979 56.2702L95.2171 55.3987L95.0363 54.5273L94.6917 52.9647C94.5273 52.2703 94.4091 51.7501 94.3374 51.4041L94.2882 51.1182L94.1562 50.4817C94.01 49.7767 93.9303 49.4256 93.9172 49.4283L92.8108 49.6578C92.7586 49.6687 92.7069 49.6658 92.6558 49.6491C92.6112 49.6311 92.5842 49.5993 92.5747 49.5536C92.5639 49.5014 92.5662 49.4634 92.5817 49.4398C92.5973 49.4162 92.6461 49.389 92.7283 49.3583C92.8156 49.3198 92.9441 49.2829 93.1138 49.2477L94.093 49.0446L95.168 48.8114C95.2463 48.7951 95.3013 48.7973 95.3328 48.818C95.3709 48.8374 95.396 48.8764 95.4082 48.9352C95.4285 49.0331 95.3766 49.0949 95.2526 49.1206L94.812 49.212L94.3811 49.3014L94.2951 49.3295L94.4227 49.8954L94.5811 50.6591L95.4058 54.6344L95.5744 55.4471L95.7345 56.1697L95.7386 56.1893C95.7494 56.2415 95.7556 56.2879 95.7572 56.3284C95.7575 56.3624 95.7498 56.3912 95.7343 56.4148C95.7215 56.4515 95.6922 56.4746 95.6465 56.4841ZM98.2544 55.9431C98.0129 55.9932 97.8826 55.9726 97.8637 55.8812C97.8068 55.607 97.7306 55.1905 97.6351 54.6316L97.3987 53.3938C97.3039 52.9368 97.1526 52.2567 96.9448 51.3534C96.7521 50.5559 96.5982 49.8798 96.4831 49.3249C96.3856 48.8549 96.4217 48.6023 96.5914 48.5671C97.0288 48.4764 97.3941 48.547 97.6873 48.7789C97.9871 49.0095 98.185 49.3565 98.2812 49.82C98.3895 50.3422 98.293 50.9274 97.9917 51.5754C98.4094 51.8496 98.7193 52.1291 98.9214 52.414C99.13 52.6976 99.2797 53.058 99.3704 53.4954C99.426 53.763 99.4609 53.9804 99.4751 54.1477C99.4946 54.3071 99.4957 54.46 99.4784 54.6066C99.4625 54.7597 99.423 54.8973 99.3598 55.0193C99.3031 55.14 99.2157 55.2603 99.0976 55.3801C98.986 55.4986 98.8352 55.6252 98.6453 55.7599C98.571 55.7957 98.5091 55.8256 98.4596 55.8495C98.3815 55.8997 98.3197 55.9296 98.274 55.939L98.2544 55.9431ZM97.3549 51.6565C97.4985 51.6267 97.6227 51.5362 97.7275 51.3851C97.8324 51.234 97.9062 51.0485 97.9491 50.8285C97.9947 50.6216 98.0193 50.4122 98.023 50.2004C98.0254 49.982 98.009 49.788 97.9738 49.6182C97.9264 49.3898 97.7968 49.192 97.5851 49.0248C97.3799 48.8563 97.1729 48.7937 96.964 48.8371C96.7943 48.8723 96.7386 49.0302 96.7968 49.3109C96.8875 49.7483 96.9753 50.1386 97.0601 50.4818L97.3235 51.6528L97.3549 51.6565ZM98.2437 55.547C98.4656 55.501 98.6545 55.3937 98.8101 55.2252C98.971 55.0489 99.0806 54.8389 99.139 54.5953C99.204 54.3503 99.21 54.1006 99.1572 53.846C98.9148 52.6775 98.4885 52.034 97.8784 51.9155C97.8262 51.9263 97.7447 51.9603 97.634 52.0173C97.5311 52.0795 97.4601 52.1146 97.421 52.1227C97.6743 53.18 97.9283 54.3222 98.1829 55.5494L98.2123 55.5433L98.2437 55.547ZM102.302 55.2566C101.395 55.4448 100.615 53.9691 99.9639 50.8292L99.8826 50.4376C99.7689 49.8893 99.7027 49.406 99.684 48.9877C99.6703 48.725 99.6792 48.5053 99.7107 48.3285C99.7486 48.1505 99.8162 48.0003 99.9134 47.878C100.001 47.744 100.133 47.6587 100.31 47.6221C100.466 47.5896 100.617 47.5925 100.761 47.6307C100.904 47.6623 101.027 47.7183 101.133 47.7986C101.223 47.8751 101.314 47.9824 101.404 48.1203C101.494 48.2583 101.569 48.3924 101.63 48.5227L101.804 48.9666C102.192 50.0504 102.476 51.0231 102.654 51.8847L102.66 51.9141C102.728 52.2405 102.784 52.5421 102.828 52.819C102.882 53.1481 102.918 53.4982 102.933 53.8694C102.944 54.0511 102.936 54.2126 102.911 54.354C102.893 54.494 102.858 54.6375 102.807 54.7843C102.718 55.0477 102.55 55.2051 102.302 55.2566ZM102.265 54.9784C102.369 54.9567 102.452 54.8783 102.512 54.7432C102.571 54.6016 102.601 54.4183 102.602 54.1934C102.612 53.7148 102.584 53.2542 102.52 52.8114C102.46 52.4562 102.395 52.1121 102.326 51.7792L102.318 51.74L102.105 50.7629C102.019 50.4131 101.885 49.9643 101.703 49.4165C101.568 49.0291 101.376 48.6435 101.126 48.2596C101.027 48.1099 100.912 48.0009 100.783 47.9326C100.659 47.8628 100.535 47.8408 100.411 47.8666C100.3 47.8896 100.213 47.9621 100.15 48.0842C100.087 48.2062 100.049 48.3673 100.036 48.5674C100.009 49.0292 100.028 49.4474 100.092 49.8222C100.139 50.1461 100.197 50.4778 100.268 50.8173L100.367 51.297C100.458 51.7344 100.616 52.2804 100.84 52.9352C100.98 53.3487 101.122 53.7039 101.265 54.001C101.409 54.2981 101.568 54.5408 101.743 54.7291C101.921 54.9305 102.095 55.0136 102.265 54.9784Z" fill="black"/>
</svg>
