<svg width="101" height="102" viewBox="0 0 101 102" fill="none" xmlns="http://www.w3.org/2000/svg">
<path d="M61.899 5.72288L72.7981 11.9054L84.1214 18.3274L38.0528 28.1058L15.232 14.8158L61.899 5.72288ZM62.832 0L0 12.24L37.128 33.864C57.8462 29.4658 78.5618 25.0702 99.28 20.672C87.1298 13.7822 74.9822 6.88976 62.832 0Z" fill="#E6AE75"/>
<path d="M93.9189 27.287L94.248 54.8733L94.6016 84.5131L67.5893 90.032L42.6905 95.1211L42.6361 67.4043L42.5762 37.5088L72.0801 31.6336L93.9189 27.2843M99.28 20.672C78.5618 24.7982 57.8463 28.9218 37.1281 33.048C37.1743 55.9613 37.2178 78.8718 37.2641 101.785C58.208 97.5038 79.1521 93.2253 100.096 88.944C99.824 66.1858 99.552 43.4302 99.28 20.672Z" fill="#A25133"/>
<path d="M5.44 21.5261L31.6934 36.2413L31.756 67.5376L31.805 92.8118L21.2432 87.0291L5.44 78.3768V21.5261ZM0 12.24V81.6C12.4222 88.4 24.8418 95.2 37.264 102C37.2178 79.016 37.1742 56.032 37.128 33.048L0 12.24Z" fill="#F5D2AC"/>
<path d="M6.53886 76.8774C6.4867 76.8477 6.45795 76.8072 6.45262 76.7559C6.45025 76.6993 6.46538 76.6424 6.49799 76.585L6.89376 75.8886L7.28952 75.1922L7.98537 73.9313C8.28693 73.3643 8.51627 72.9425 8.67339 72.6661L8.81017 72.4436L9.09922 71.935C9.41939 71.3716 9.57426 71.087 9.56383 71.081L8.67964 70.5785C8.63791 70.5548 8.60471 70.5221 8.58006 70.4805C8.56062 70.4419 8.56127 70.4043 8.58202 70.3678C8.60574 70.326 8.62987 70.3018 8.65441 70.295C8.67896 70.2883 8.7281 70.299 8.80184 70.3271C8.88377 70.3529 8.99254 70.4044 9.12817 70.4815L9.91064 70.9262L10.7758 71.4075C10.8384 71.4431 10.8742 71.4772 10.8832 71.5099C10.8974 71.5456 10.8912 71.5869 10.8645 71.6339C10.8201 71.7121 10.7483 71.7231 10.6491 71.6668L10.297 71.4667L9.95275 71.271L9.87788 71.2388L9.62779 71.6971L9.28094 72.3074L7.47552 75.4842L7.10643 76.1337L6.78519 76.7171L6.7763 76.7328C6.75258 76.7745 6.72922 76.8096 6.70622 76.8379C6.68618 76.861 6.66389 76.8759 6.63934 76.8827C6.60887 76.8999 6.57538 76.8981 6.53886 76.8774ZM8.43506 77.955C8.37247 77.9194 8.39305 77.8103 8.49681 77.6278C8.64503 77.3669 8.77435 77.1333 8.88475 76.9269L9.26932 76.2138L9.62951 75.58C9.73102 75.3892 9.84848 75.1765 9.98188 74.9418C10.3791 74.2428 10.7337 73.5885 11.0456 72.979L11.1978 72.6929C11.3571 72.3762 11.4916 72.1214 11.6013 71.9284L11.6425 71.9104C11.6537 71.9029 11.6715 71.8958 11.6961 71.8891C11.7102 71.8764 11.7291 71.8734 11.753 71.88C11.7664 71.8807 11.7861 71.8885 11.8122 71.9033C11.9948 72.0071 12.1354 72.1422 12.234 72.3087C12.3378 72.4781 12.3952 72.6625 12.4061 72.8619C12.4256 73.2526 12.3316 73.6305 12.1241 73.9957C11.9907 74.2304 11.8152 74.4481 11.5976 74.6488C11.3853 74.8525 11.1471 75.0105 10.8832 75.1227C10.6051 75.2477 10.3592 75.2735 10.1455 75.2004L9.66752 76.0778L9.44304 76.5092C9.17931 77.0219 8.94665 77.4555 8.74506 77.8103C8.69762 77.8937 8.64901 77.9489 8.59921 77.9758C8.55759 78.0005 8.50288 77.9935 8.43506 77.955ZM10.31 74.9108C10.3599 74.9323 10.4187 74.9381 10.4864 74.9283C10.4998 74.929 10.5299 74.9185 10.5768 74.8968C10.5768 74.8968 10.6054 74.8889 10.6627 74.8732C11.1944 74.7268 11.6056 74.398 11.8961 73.8868C12.0621 73.5947 12.1589 73.2908 12.1864 72.9752C12.198 72.8092 12.1645 72.6556 12.086 72.5144C12.0105 72.368 11.8919 72.2488 11.7302 72.1569C11.5612 72.4542 11.3234 72.9091 11.0167 73.5216C10.71 74.1341 10.4722 74.589 10.3032 74.8863L10.31 74.9108ZM11.9935 79.9152C11.9518 79.8915 11.9227 79.8577 11.9062 79.8138C11.895 79.7729 11.8997 79.7342 11.9205 79.6977L12.503 78.6727C12.5386 78.6101 12.4382 78.4771 12.2018 78.2737C11.9654 78.0704 11.7611 77.9198 11.589 77.8219C11.5785 77.816 11.5381 77.8448 11.4675 77.9082C11.4022 77.9746 11.3539 78.0231 11.3227 78.0536C11.1008 78.2864 10.8684 78.5373 10.6257 78.8066L10.4887 78.9565C10.4546 78.9923 10.4166 78.9983 10.3749 78.9746C10.3332 78.9509 10.3015 78.9156 10.2798 78.8688C10.2633 78.8249 10.2654 78.7847 10.2862 78.7482L10.3029 78.737L10.3074 78.7292L10.6158 78.3869C10.8177 78.1773 11.0088 77.9684 11.1892 77.7604C11.3925 77.524 11.5295 77.3741 11.6001 77.3106C11.7396 77.1622 12.0677 76.7793 12.5842 76.1619L12.7779 75.9303C13.37 75.2041 13.7515 74.7514 13.9222 74.5724C14.0195 74.4621 14.1717 74.3036 14.3788 74.0969C14.4642 74.0074 14.56 73.9238 14.6662 73.8462C14.7636 73.7842 14.8279 73.7621 14.8592 73.7799C14.9427 73.8273 14.9878 73.8875 14.9947 73.9604C14.9941 74.0222 14.8865 74.3026 14.6718 74.8017C14.4624 75.3038 14.2422 75.8067 14.0112 76.3103L13.3747 77.667C13.2472 77.8913 13.0702 78.2393 12.8436 78.7109C12.614 79.1878 12.4355 79.5383 12.308 79.7626L12.2902 79.7939C12.2576 79.8513 12.2201 79.899 12.1778 79.9371C12.1332 79.967 12.0718 79.9597 11.9935 79.9152ZM12.5388 78.2272C12.6431 78.2865 12.7101 78.29 12.7398 78.2379C12.9236 77.9144 13.1558 77.4633 13.4365 76.8844C13.7202 76.3002 13.9627 75.7824 14.164 75.331C14.2574 75.1425 14.3506 74.9298 14.4438 74.6929L14.586 74.3699C14.583 74.3752 14.5941 74.3435 14.6192 74.275L14.657 74.1722C14.55 74.2632 14.4178 74.3986 14.2605 74.5783C14.1084 74.761 13.9329 74.9788 13.734 75.2315C13.1671 75.9376 12.7281 76.4611 12.4171 76.8019L12.1955 77.0279C11.969 77.2443 11.8172 77.4203 11.7402 77.5559L11.7135 77.6029C11.9015 77.8063 12.1442 77.9925 12.4415 78.1615L12.4885 78.1882C12.5012 78.2023 12.5179 78.2153 12.5388 78.2272ZM12.3921 80.9906C12.3593 80.9512 12.3636 80.895 12.4051 80.822L12.4574 80.7482L12.5529 80.5437C12.6529 80.3313 12.7058 80.2199 12.7118 80.2095C12.7681 80.1104 12.8167 80.0552 12.8576 80.0439C12.8903 80.0349 12.9406 80.0497 13.0084 80.0882C13.0971 80.1386 13.1773 80.198 13.2489 80.2663C13.3396 80.2281 13.4243 80.1762 13.503 80.1105C13.587 80.0478 13.6846 79.9549 13.7959 79.8319C14.1692 79.3815 14.4666 78.9432 14.6881 78.517L15.6318 76.7655C16.0111 76.0494 16.2893 75.5174 16.4664 75.1694C16.4693 75.1642 16.503 75.0867 16.5674 74.937L16.5852 74.9057C16.6059 74.8692 16.6286 74.8476 16.6531 74.8408C16.6829 74.837 16.7253 74.8473 16.7805 74.8718C16.9853 74.9606 17.2103 75.0747 17.4555 75.214C17.495 75.2295 17.5263 75.2473 17.5494 75.2674C17.5807 75.2851 17.6068 75.3 17.6277 75.3118C17.6955 75.3504 17.764 75.3755 17.8332 75.3872C17.8973 75.396 17.9379 75.4398 17.9552 75.5187C17.9807 75.5953 17.9742 75.6675 17.9356 75.7353C17.7177 76.0945 17.5687 76.3446 17.4887 76.4854L17.0607 77.2567C16.9288 77.513 16.8184 77.7194 16.7295 77.8759C16.5828 78.1583 16.3802 78.5573 16.1217 79.0729C15.8661 79.5833 15.6706 79.9759 15.535 80.2509C15.4476 80.4289 15.3081 80.7534 15.1165 81.2242L15.3121 81.3353C15.3978 81.3909 15.4526 81.4463 15.4766 81.5013C15.5035 81.5511 15.5006 81.6047 15.468 81.662C15.4502 81.6933 15.4172 81.7332 15.369 81.7817L15.1641 81.9965C15.0557 82.1144 14.9707 82.1972 14.909 82.245C14.8496 82.3009 14.792 82.3234 14.7361 82.3123C14.7093 82.3109 14.6907 82.3072 14.6803 82.3013C14.6438 82.2806 14.6255 82.246 14.6254 82.1976C14.6305 82.1522 14.6531 82.1064 14.6931 82.0602C14.7778 81.9841 14.9311 81.8296 15.1531 81.5969C15.0874 81.5182 14.9998 81.4477 14.8902 81.3854C14.8068 81.338 14.6809 81.2803 14.5125 81.2122C14.0633 81.019 13.6926 80.8394 13.4005 80.6734C13.2492 80.5874 13.1102 80.4981 12.9835 80.4053C12.9501 80.4277 12.8978 80.5015 12.8266 80.6267C12.7265 80.7907 12.6424 80.9085 12.5741 80.9801C12.5058 81.0517 12.4451 81.0552 12.3921 80.9906ZM13.9442 80.6822C14.2207 80.8393 14.5138 80.9852 14.8238 81.1199L14.9661 80.8695C14.9987 80.8121 15.0372 80.7443 15.0817 80.6661C15.1314 80.5908 15.1803 80.5047 15.2284 80.4079L15.8883 79.0645C16.1106 78.6249 16.338 78.1883 16.5707 77.7546L17.3308 76.2714C17.4715 75.9995 17.5711 75.7938 17.6296 75.6545C17.5057 75.5082 17.389 75.4039 17.2794 75.3417C17.1386 75.2616 16.9781 75.2222 16.798 75.2234C16.7661 75.2673 16.7038 75.3527 16.6111 75.4794C16.5213 75.6009 16.4435 75.7258 16.3776 75.8539C16.2612 76.0708 16.0775 76.4184 15.8263 76.8968C15.5752 77.3751 15.3903 77.7187 15.2717 77.9273L15.1717 78.1396C15.1354 78.2156 15.0692 78.3505 14.9729 78.5442C14.8795 78.7327 14.7899 78.9026 14.7039 79.0539C14.6061 79.226 14.4975 79.399 14.3781 79.5726C14.1956 79.8209 14.0446 80.0077 13.925 80.133C13.8055 80.2583 13.6707 80.368 13.5206 80.4621L13.9442 80.6822ZM16.0512 82.3144C16.0147 82.2936 15.9856 82.2598 15.9639 82.213C15.9422 82.1662 15.9376 82.1256 15.9502 82.0914C16.0271 81.859 16.0899 81.6877 16.1388 81.5774L16.3554 81.1415C16.6613 80.4941 16.9283 79.9695 17.1566 79.5679C17.2781 79.354 17.4182 79.1196 17.5769 78.8647C17.7385 78.6046 17.8516 78.4239 17.9161 78.3225L18.2242 77.8351C18.5311 77.3194 18.7571 76.9337 18.9024 76.6781C18.9343 76.6341 18.958 76.5924 18.9736 76.5529C18.9943 76.5164 19.0121 76.4851 19.0269 76.459L19.147 76.2477C19.1707 76.206 19.2082 76.1825 19.2596 76.1771C19.3109 76.1718 19.3623 76.1907 19.4138 76.2337C19.4854 76.302 19.4852 76.3813 19.4132 76.4715C19.3702 76.5229 19.3342 76.568 19.3052 76.6068C19.2845 76.6433 19.2667 76.6746 19.2519 76.7007L19.0539 77.0126C18.8834 77.2884 18.7544 77.4911 18.6669 77.6208C18.6053 77.717 18.5004 77.8713 18.352 78.0837C18.3023 78.159 18.2397 78.251 18.164 78.3599C18.0913 78.4635 18.0094 78.5895 17.9182 78.7378C17.6943 79.1074 17.5275 79.3888 17.4178 79.5818C17.2844 79.8165 17.1863 79.9954 17.1233 80.1183C16.9743 80.3925 16.7977 80.758 16.5934 81.2146L16.4345 81.5488C16.419 81.5883 16.4005 81.633 16.379 81.6829C16.3658 81.7305 16.3499 81.7767 16.3314 81.8214L16.3627 81.8392C16.3761 81.8399 16.5402 81.6847 16.855 81.3737C17.1728 81.0574 17.394 80.8381 17.5188 80.7157L18.7271 79.5184L20.558 77.6811C20.737 77.4998 20.8546 77.3838 20.9111 77.3331C20.9816 77.2697 21.056 77.2602 21.1343 77.3047C21.2386 77.364 21.2485 77.4558 21.164 77.5803C21.135 77.6191 21.0976 77.6668 21.0515 77.7235C21.0055 77.7801 20.9577 77.8461 20.908 77.9214C20.7924 78.1248 20.6049 78.4427 20.3454 78.8749L19.775 79.824C19.7394 79.8866 19.6808 79.9776 19.5992 80.0968C19.4821 80.2787 19.3953 80.4192 19.339 80.5183L18.8755 81.3522C18.6724 81.7337 18.5176 82.0183 18.4108 82.2061L18.1707 82.6287L17.974 82.993L17.9606 83.0165C17.931 83.0687 17.8942 83.103 17.8504 83.1195C17.8117 83.1389 17.773 83.1342 17.7342 83.1052C17.6977 83.0845 17.6742 83.047 17.6637 82.9927C17.6531 82.9383 17.6612 82.8877 17.6879 82.8408C17.7175 82.7886 17.7613 82.7238 17.8191 82.6462C17.8695 82.5575 17.9533 82.4223 18.0705 82.2404C18.235 81.9751 18.3559 81.7746 18.433 81.639C18.6227 81.3051 18.7913 81.0145 18.9388 80.7671C19.0893 80.5144 19.2146 80.3061 19.3147 80.1422C19.4496 79.929 19.5482 79.7676 19.6105 79.6581C19.6846 79.5277 19.8039 79.3298 19.9685 79.0645C20.2398 78.6114 20.4422 78.2674 20.5756 78.0327L20.5488 78.0071L19.9997 78.5543L18.5195 80.0112C18.2277 80.2939 17.7923 80.7262 17.2132 81.3081C16.8842 81.6318 16.6285 81.8937 16.4459 82.0935C16.3924 82.1391 16.3356 82.1965 16.2755 82.2658C16.2072 82.3375 16.135 82.3551 16.059 82.3188L16.0512 82.3144ZM20.5122 86.0504C20.4786 86.0244 20.4603 85.9899 20.4572 85.9467C20.4564 85.9117 20.4664 85.876 20.4871 85.8395C20.4775 85.8685 20.542 85.7672 20.6806 85.5354C20.8215 85.3118 20.926 85.14 20.9942 85.02C20.9525 84.9963 20.891 84.9648 20.8098 84.9256C20.7368 84.8841 20.6757 84.8459 20.6265 84.811C20.4745 84.7385 20.2498 84.6177 19.9525 84.4487L19.5065 84.1952C19.3895 84.1218 19.3231 84.0565 19.3073 83.9992C19.2968 83.9449 19.3259 83.8511 19.3948 83.7177L20.2504 82.0301C20.7394 81.0726 21.1168 80.3416 21.3828 79.8372L21.8929 78.8849C21.9107 78.8536 21.9533 78.7604 22.0207 78.6055C22.0962 78.4483 22.1666 78.3123 22.2318 78.1975C22.2881 78.0984 22.333 78.0377 22.3664 78.0153C22.3969 77.9981 22.4278 77.9984 22.4591 78.0162C22.4956 78.0369 22.5206 78.0718 22.5341 78.1209C22.5499 78.1782 22.5267 78.2616 22.4644 78.3711C22.4029 78.4673 22.3195 78.62 22.2143 78.8294C22.069 79.085 21.9097 79.3775 21.7364 79.7069C21.566 80.031 21.4493 80.2545 21.3863 80.3775C21.2989 80.5555 21.1655 80.8145 20.9863 81.1542C20.5713 81.9329 20.105 82.8687 19.5874 83.9617L20.5107 84.4865C20.5723 84.3903 20.6334 84.2767 20.6941 84.1455C20.763 84.0122 20.8123 83.9194 20.8419 83.8672C20.9204 83.7048 20.979 83.5897 21.0175 83.5219C21.3583 82.8736 21.871 81.8744 22.5554 80.5243C22.7347 80.1845 22.8718 79.9312 22.9667 79.7642C23.1934 79.341 23.3594 79.0247 23.4645 78.8153L23.4779 78.7918C23.5312 78.6979 23.6011 78.6721 23.6876 78.7143L23.7032 78.7232C23.7763 78.7647 23.7913 78.8354 23.7484 78.9352C23.6284 79.1707 23.5372 79.3432 23.475 79.4527C23.0036 80.2821 22.656 80.9058 22.4323 81.3239C22.2167 81.7396 21.9323 82.313 21.579 83.0439L20.7969 84.6387C20.9466 84.7031 21.0743 84.7516 21.1801 84.784C21.2747 84.824 21.331 84.8767 21.349 84.9422C21.37 85.0024 21.3542 85.0728 21.3015 85.1533C21.2081 85.2934 21.0627 85.5006 20.8654 85.775C20.8535 85.7958 20.8298 85.8376 20.7943 85.9002C20.7557 85.968 20.7115 86.0153 20.6617 86.0422C20.6142 86.0773 20.5643 86.0801 20.5122 86.0504ZM21.9579 85.6712C21.9214 85.6505 21.8923 85.6167 21.8706 85.5698C21.8489 85.523 21.8444 85.4825 21.8569 85.4482C21.9338 85.2158 21.9966 85.0445 22.0455 84.9342L22.2622 84.4984C22.568 83.8509 22.835 83.3264 23.0633 82.9247C23.1849 82.7108 23.325 82.4765 23.4836 82.2216C23.6452 81.9615 23.7583 81.7807 23.8228 81.6794L24.1309 81.1919C24.4378 80.6762 24.6639 80.2905 24.8091 80.0349C24.841 79.9909 24.8647 79.9492 24.8803 79.9097C24.901 79.8732 24.9188 79.8419 24.9336 79.8158L25.0537 79.6046C25.0774 79.5628 25.1149 79.5393 25.1663 79.534C25.2176 79.5286 25.269 79.5475 25.3205 79.5905C25.3921 79.6588 25.3919 79.7381 25.3199 79.8283C25.2769 79.8798 25.2409 79.9249 25.2119 79.9637C25.1912 80.0002 25.1734 80.0315 25.1586 80.0575L24.9606 80.3695C24.7901 80.6452 24.6611 80.848 24.5736 80.9777C24.512 81.0738 24.4071 81.2281 24.2587 81.4406C24.2091 81.5158 24.1464 81.6079 24.0707 81.7167C23.998 81.8203 23.9161 81.9463 23.8249 82.0946C23.601 82.4643 23.4343 82.7456 23.3246 82.9386C23.1912 83.1734 23.093 83.3522 23.03 83.4751C22.8811 83.7494 22.7044 84.1148 22.5001 84.5715L22.3413 84.9056C22.3257 84.9451 22.3072 84.9898 22.2858 85.0397C22.2725 85.0874 22.2566 85.1336 22.2381 85.1783L22.2694 85.1961C22.2828 85.1968 22.4469 85.0416 22.7617 84.7305C23.0795 84.4142 23.3007 84.1949 23.4255 84.0726L24.6339 82.8752L26.4647 81.0379C26.6437 80.8567 26.7614 80.7407 26.8178 80.6899C26.8884 80.6265 26.9628 80.617 27.041 80.6615C27.1453 80.7208 27.1552 80.8127 27.0707 80.9372C27.0417 80.9759 27.0043 81.0237 26.9583 81.0803C26.9123 81.137 26.8644 81.203 26.8147 81.2782C26.6991 81.4817 26.5116 81.7995 26.2521 82.2318L25.6817 83.1809C25.6461 83.2435 25.5875 83.3344 25.5059 83.4537C25.3888 83.6355 25.302 83.776 25.2457 83.8751L24.7822 84.709C24.5792 85.0905 24.4243 85.3752 24.3176 85.563L24.0774 85.9855L23.8807 86.3499L23.8674 86.3734C23.8377 86.4255 23.801 86.4598 23.7571 86.4763C23.7184 86.4958 23.6797 86.491 23.641 86.4621C23.6044 86.4413 23.5809 86.4038 23.5704 86.3495C23.5598 86.2952 23.5679 86.2446 23.5946 86.1976C23.6242 86.1455 23.668 86.0806 23.7258 86.0031C23.7762 85.9144 23.86 85.7791 23.9772 85.5973C24.1418 85.3319 24.2626 85.1315 24.3397 84.9958C24.5294 84.662 24.698 84.3713 24.8455 84.1239C24.996 83.8713 25.1213 83.663 25.2214 83.499C25.3563 83.2858 25.4549 83.1245 25.5172 83.0149C25.5913 82.8845 25.7107 82.6867 25.8752 82.4213C26.1466 81.9682 26.3489 81.6243 26.4823 81.3895L26.4555 81.3639L25.9064 81.9111L24.4263 83.368C24.1345 83.6508 23.699 84.0831 23.1199 84.6649C22.791 84.9887 22.5352 85.2505 22.3526 85.4504C22.2991 85.4959 22.2423 85.5533 22.1822 85.6227C22.1139 85.6943 22.0417 85.712 21.9658 85.6757L21.9579 85.6712ZM25.2055 87.5168C25.169 87.4961 25.1399 87.4623 25.1182 87.4155C25.0965 87.3686 25.0919 87.3281 25.1045 87.2938C25.1813 87.0614 25.2442 86.8901 25.293 86.7799L25.5097 86.344C25.8155 85.6965 26.0826 85.172 26.3109 84.7703C26.4324 84.5565 26.5725 84.3221 26.7312 84.0672C26.8928 83.8071 27.0059 83.6263 27.0704 83.525L27.3784 83.0375C27.6853 82.5218 27.9114 82.1361 28.0567 81.8805C28.0886 81.8366 28.1123 81.7948 28.1278 81.7553C28.1486 81.7188 28.1664 81.6875 28.1812 81.6615L28.3012 81.4502C28.325 81.4085 28.3625 81.3849 28.4138 81.3796C28.4652 81.3743 28.5166 81.3931 28.568 81.4362C28.6396 81.5045 28.6394 81.5837 28.5675 81.6739C28.5244 81.7254 28.4884 81.7705 28.4595 81.8093C28.4387 81.8458 28.421 81.8771 28.4061 81.9032L28.2082 82.2151C28.0376 82.4908 27.9086 82.6936 27.8211 82.8233C27.7596 82.9194 27.6546 83.0737 27.5063 83.2862C27.4566 83.3614 27.3939 83.4535 27.3183 83.5623C27.2456 83.666 27.1637 83.7919 27.0725 83.9402C26.8486 84.3099 26.6818 84.5912 26.5721 84.7842C26.4387 85.019 26.3405 85.1978 26.2775 85.3208C26.1286 85.595 25.952 85.9604 25.7476 86.4171L25.5888 86.7513C25.5733 86.7907 25.5548 86.8354 25.5333 86.8853C25.52 86.933 25.5041 86.9792 25.4856 87.0239L25.5169 87.0417C25.5303 87.0424 25.6944 86.8872 26.0092 86.5761C26.327 86.2598 26.5483 86.0405 26.673 85.9182L27.8814 84.7209L29.7123 82.8836C29.8912 82.7023 30.0089 82.5863 30.0653 82.5356C30.1359 82.4721 30.2103 82.4627 30.2885 82.5071C30.3929 82.5664 30.4028 82.6583 30.3182 82.7828C30.2893 82.8216 30.2518 82.8693 30.2058 82.9259C30.1598 82.9826 30.112 83.0486 30.0623 83.1239C29.9467 83.3273 29.7591 83.6452 29.4997 84.0774L28.9292 85.0265C28.8936 85.0891 28.8351 85.18 28.7535 85.2993C28.6363 85.4812 28.5496 85.6216 28.4933 85.7208L28.0297 86.5546C27.8267 86.9361 27.6718 87.2208 27.5651 87.4086L27.325 87.8311L27.1283 88.1955L27.1149 88.219C27.0853 88.2711 27.0485 88.3055 27.0046 88.3219C26.966 88.3414 26.9273 88.3366 26.8885 88.3077C26.852 88.2869 26.8285 88.2494 26.8179 88.1951C26.8074 88.1408 26.8154 88.0902 26.8421 88.0432C26.8718 87.9911 26.9155 87.9262 26.9734 87.8487C27.0238 87.76 27.1076 87.6247 27.2247 87.4429C27.3893 87.1775 27.5101 86.9771 27.5872 86.8414C27.777 86.5076 27.9456 86.2169 28.0931 85.9695C28.2436 85.7169 28.3689 85.5086 28.4689 85.3446C28.6039 85.1315 28.7025 84.9701 28.7647 84.8606C28.8388 84.7301 28.9582 84.5323 29.1228 84.2669C29.3941 83.8138 29.5965 83.4699 29.7299 83.2352L29.703 83.2095L29.154 83.7567L27.6738 85.2136C27.382 85.4964 26.9465 85.9287 26.3674 86.5105C26.0385 86.8343 25.7827 87.0961 25.6001 87.296C25.5467 87.3415 25.4899 87.399 25.4297 87.4683C25.3614 87.5399 25.2893 87.5576 25.2133 87.5213L25.2055 87.5168Z" fill="black"/>
<path d="M52.1037 73.6227C51.9868 73.6499 51.8709 73.6221 51.7558 73.5394C51.6377 73.4436 51.5575 73.3048 51.5153 73.123C51.4337 72.7724 51.3578 72.4752 51.2874 72.2315C51.214 71.9747 51.1497 71.757 51.0944 71.5782C50.8492 70.7591 50.6783 70.1418 50.5817 69.7262C50.3824 68.8691 50.1636 68.0165 49.9253 67.1684C49.7574 66.564 49.5796 65.9757 49.3917 65.4034C49.3585 65.2605 49.2987 65.0622 49.2123 64.8085C49.1882 64.7047 49.158 64.5748 49.1218 64.4189C49.0985 64.2601 49.0577 64.0848 48.9995 63.893C48.74 62.954 48.338 61.5485 47.7932 59.6766C47.7349 59.4848 47.7357 59.3409 47.7955 59.2449C47.8553 59.1488 47.986 59.0637 48.1878 58.9894C48.6952 58.8166 49.1601 58.6675 49.5827 58.5418C50.0182 58.4132 50.3059 58.3258 50.4457 58.2796C50.9452 58.1908 51.2528 58.3657 51.3685 58.8042C51.9984 61.3955 52.4774 63.3375 52.8053 64.6302C53.0538 65.6401 53.3314 66.657 53.6379 67.6809C53.9426 68.8147 54.2622 69.9244 54.5968 71.0102L54.7626 71.5466C54.829 71.8323 54.9134 72.107 55.0158 72.3707L55.0294 72.4291C55.0928 72.7018 54.9947 72.8684 54.7349 72.9288C54.6051 72.959 54.5101 72.9332 54.45 72.8513C54.3998 72.7535 54.3476 72.5876 54.2932 72.3539C54.1876 71.8993 54 71.2106 53.7307 70.2876C53.6724 70.0958 53.6035 69.8586 53.5241 69.5759C53.4417 69.2802 53.3551 68.9376 53.2645 68.548C53.1981 68.2623 53.0855 67.8367 52.9266 67.2713L52.5692 65.9992L52.1498 64.3719C51.9595 63.5538 51.7498 62.7401 51.5206 61.931C51.4602 61.6713 51.3536 61.2717 51.2008 60.7323C50.9876 59.9331 50.8327 59.3258 50.7361 58.9102C50.6581 58.9283 50.5168 58.968 50.312 59.0293C50.1073 59.0906 49.9365 59.1509 49.7997 59.2101L48.4152 59.6141L48.8858 61.3732C48.9924 61.7728 49.1383 62.3412 49.3234 63.0784C49.5215 63.8127 49.6954 64.443 49.8452 64.9694C50.0101 65.5608 50.2583 66.3928 50.5899 67.4656L50.9623 68.7137L51.2277 69.6787C51.453 70.5297 51.633 71.186 51.7676 71.6475L51.9321 72.2664C51.9783 72.4062 52.0346 72.619 52.101 72.9047L52.1871 73.2748C52.2143 73.3917 52.2209 73.4791 52.207 73.5371C52.2031 73.5791 52.1687 73.6076 52.1037 73.6227ZM63.4409 70.3911C63.5032 70.5409 63.5074 70.6768 63.4536 70.7988C63.4128 70.9178 63.329 70.9989 63.2022 71.0421C63.0753 71.0853 62.9639 71.077 62.8678 71.0172C62.7818 70.9414 62.7206 70.8255 62.6844 70.6697L62.3958 69.3405C62.3424 69.0518 62.2477 68.6152 62.1118 68.0308L61.7726 66.8366C61.2598 64.9846 60.8742 63.5616 60.6157 62.5677C60.3934 61.7296 60.0338 60.3006 59.5367 58.2806L59.428 57.8131L59.2998 57.3501L59.2151 56.8975C59.1547 56.6378 59.2319 56.4693 59.4466 56.392L59.4856 56.3829C59.5895 56.3588 59.6894 56.3766 59.7855 56.4364C59.8945 56.4932 59.9626 56.58 59.9898 56.6969L60.1474 57.728L61.1733 62.5817C61.1733 62.5817 61.3352 63.1601 61.6589 64.3169C61.9869 65.6095 62.1895 66.3632 62.2668 66.5779L63.2317 69.8443C63.312 70.072 63.3818 70.2543 63.4409 70.3911ZM59.806 65.1789C60.2587 65.7718 60.5862 66.5033 60.7886 67.3734C60.9516 68.0747 60.9484 68.8557 60.779 69.7165C60.672 70.3163 60.4704 70.7738 60.1741 71.0891C59.8748 71.3914 59.4201 71.7025 58.81 72.0223C58.7611 72.0474 58.6847 72.072 58.5808 72.0961C58.2302 72.1777 58.0015 72.0186 57.8949 71.6191C57.8315 71.3463 57.7554 70.9602 57.6667 70.4607L57.5548 69.8912L56.7517 66.5256L56.296 64.7425C56.1994 64.3269 56.0475 63.7326 55.8403 62.9594C55.5797 61.8975 55.188 60.4485 54.6653 58.6126C54.6692 58.5706 54.6446 58.4942 54.5915 58.3833C54.5483 58.2565 54.5161 58.1476 54.495 58.0567C54.4557 57.8879 54.4655 57.7829 54.5244 57.7418C54.5782 57.6198 54.657 57.5467 54.7609 57.5226C54.8388 57.5045 54.9193 57.5268 55.0024 57.5896C55.0854 57.6525 55.147 57.7408 55.1872 57.8547L55.5763 59.2631C55.6829 59.6627 55.8016 60.1142 55.9323 60.6177C56.0631 61.1212 56.2105 61.6961 56.3744 62.3424C56.4699 62.635 56.5855 63.0736 56.7214 63.658C58.0195 63.5889 59.0477 64.0958 59.806 65.1789ZM60.1828 69.0953C60.2315 68.3037 60.2045 67.6872 60.1018 67.2456C59.975 66.7002 59.7442 66.1789 59.4096 65.6817C59.088 65.1816 58.7266 64.8344 58.3256 64.6402C57.9215 64.433 57.4361 64.3474 56.8695 64.3833L57.7977 68.1099L57.9168 68.534C58.2215 69.6677 58.4291 70.4134 58.5396 70.771L58.5532 70.8295C58.6015 71.0373 58.7101 71.1215 58.8789 71.0823L59.1036 70.9889C59.7207 70.6401 60.0804 70.0089 60.1828 69.0953ZM67.3064 70.0056C67.0047 70.0621 66.7913 70.0569 66.6663 69.9902C66.5382 69.9105 66.433 69.7228 66.3506 69.4271L65.6263 66.5771L65.1103 64.6231C64.9243 63.9409 64.6643 62.9404 64.3303 61.6218C64.1694 60.9885 63.9394 60.0289 63.6404 58.7432C63.5278 58.3177 63.3718 57.6764 63.1725 56.8192C63.036 56.4677 62.9512 56.2205 62.918 56.0776C62.8847 55.9348 62.877 55.8133 62.8949 55.7134C62.9257 55.6104 62.9865 55.5483 63.0774 55.5272C63.2463 55.4879 63.3687 55.5142 63.4448 55.606C63.5179 55.6849 63.5741 55.8087 63.6134 55.9775C63.9425 57.3931 64.1821 58.453 64.3322 59.1573C64.4862 59.8197 64.5945 60.3147 64.657 60.6424L64.9818 62.1274C65.1599 62.8936 65.3459 63.5759 65.5398 64.1742C65.5277 64.1223 65.7358 64.8405 66.164 66.3288C66.3168 66.8682 66.4942 67.484 66.6963 68.1763C66.8983 68.8685 67.0194 69.2716 67.0595 69.3854C67.4443 69.3918 67.825 69.3512 68.2016 69.2636C68.4094 69.2153 68.5897 69.1665 68.7426 69.1173C68.8954 69.0681 69.0222 69.0249 69.1231 68.9877L67.2419 61.8688C66.506 59.2337 66.1576 58.0005 66.1969 58.1693L65.4563 55.4258L65.387 55.216C65.3598 55.0992 65.3791 55.0057 65.445 54.9356C65.4978 54.8686 65.5437 54.8305 65.5827 54.8215C65.6347 54.8094 65.6961 54.8088 65.7671 54.8197C65.8671 54.8375 65.9406 54.8888 65.9877 54.9737C66.0318 55.0456 66.0705 55.1529 66.1037 55.2958C66.1671 55.5685 66.2294 55.8073 66.2907 56.012C66.349 56.2038 66.4013 56.3696 66.4475 56.5095C66.4997 56.6753 66.5701 56.919 66.6586 57.2407C66.744 57.5493 66.8139 57.8205 66.8683 58.0543C67.0374 58.7816 67.2779 59.7865 67.5899 61.0692C67.9118 62.3359 68.2005 63.4597 68.4559 64.4407L69.7465 68.8428C69.8824 68.8386 70.0932 68.8032 70.3789 68.7368C70.7425 68.6522 71.0627 68.5573 71.3393 68.4519C71.5411 68.3776 71.6133 68.2171 71.5559 67.9703L71.0246 65.7736C70.7981 64.7995 70.4423 63.3286 69.9574 61.3606L69.5107 59.6164C69.3084 58.7463 69.0866 57.8807 68.8453 57.0197L68.2755 55.0988C68.2634 55.0469 68.2228 54.9605 68.1536 54.8397C68.0944 54.7028 68.0573 54.602 68.0422 54.537C68.006 54.3812 68.0452 54.2557 68.16 54.1606C68.183 54.1416 68.2139 54.1275 68.2529 54.1184C68.3827 54.0883 68.5112 54.1405 68.6384 54.2752C68.7115 54.354 68.7646 54.4649 68.7978 54.6077C69.3731 56.7874 69.8525 58.7019 70.236 60.3513C70.3236 60.7279 70.4811 61.3757 70.7085 62.2948C70.9328 63.2008 71.1728 64.1443 71.4282 65.1253C71.6142 65.8076 71.9117 66.7925 72.3206 68.08C72.3608 68.1938 72.3405 68.3423 72.2599 68.5253C72.1922 68.7053 72.0865 68.8394 71.9427 68.9276C71.747 69.0278 71.3375 69.1504 70.7141 69.2954C70.2596 69.4011 69.5877 69.5436 68.6986 69.723C67.9653 69.8661 67.5012 69.9603 67.3064 70.0056ZM78.5241 67.5615C78.1994 67.637 77.8975 67.6045 77.6185 67.4641C77.3394 67.3237 77.1056 67.0837 76.9172 66.7442C76.836 66.5715 76.7632 66.3762 76.6989 66.1584C76.6315 65.9277 76.5888 65.7734 76.5707 65.6954L76.1363 64.0922C75.8929 63.1632 75.6948 62.4289 75.542 61.8895C75.4716 61.6458 75.3768 61.4146 75.2575 61.1959C75.1602 61.0132 75.0571 60.8935 74.9481 60.8367C74.849 60.7639 74.7216 60.7456 74.5657 60.7818C74.4359 60.812 74.291 60.8663 74.1313 60.9445L74.3895 62.0548C74.4921 62.4964 74.6782 63.1787 74.9475 64.1016C74.9958 64.3094 75.0843 64.6311 75.213 65.0666C75.6551 66.497 75.9154 67.381 75.9939 67.7186C76.0093 67.9615 75.9261 68.104 75.7443 68.1463C75.4975 68.2037 75.3454 68.109 75.2881 67.8622C75.1039 67.07 74.96 66.4806 74.8564 66.0941C74.591 65.1291 74.348 64.1726 74.1276 63.2246L73.6402 61.3051L72.9521 58.6109C72.8667 58.3022 72.7484 57.8232 72.5974 57.1739L71.942 54.2668L71.8501 53.9596C71.8289 53.8687 71.8288 53.7798 71.8496 53.6928C71.8436 53.6668 71.857 53.6363 71.8899 53.6013C71.9198 53.5533 71.9802 53.5187 72.0712 53.4975C72.23 53.4743 72.3431 53.578 72.4105 53.8088C72.4527 53.9906 72.5352 54.2863 72.6578 54.6958L72.8856 55.5874C72.9602 55.967 73.1098 56.6988 73.3345 57.7828C73.5592 58.8667 73.7218 59.5955 73.8223 59.9691C73.8616 60.1379 73.9462 60.2072 74.076 60.177C74.1799 60.1529 74.2877 60.0867 74.3995 59.9786C74.6988 59.6763 74.7763 59.097 74.632 58.2408C74.5855 57.9231 74.5411 57.6733 74.4988 57.4915C74.4432 57.1348 74.3847 56.7652 74.3231 56.3825C74.2615 55.9998 74.1999 55.6172 74.1383 55.2345C74.0323 54.6021 74.1401 53.9473 74.4618 53.2702C74.5892 52.9942 74.7958 52.8229 75.0815 52.7565C75.2634 52.7142 75.4283 52.7169 75.5762 52.7647C75.7472 52.7934 75.8478 52.8726 75.878 53.0025C75.9051 53.1194 75.8893 53.1984 75.8304 53.2394C75.7845 53.2775 75.7001 53.2971 75.5771 53.2983C75.4122 53.2956 75.2843 53.3048 75.1934 53.326C75.0635 53.3561 74.9672 53.4128 74.9044 53.4958C74.8515 53.5629 74.8027 53.6769 74.758 53.8379C74.6387 54.2078 74.5934 54.6017 74.6221 55.0193C74.6478 55.4241 74.7125 55.9086 74.8164 56.4731C74.881 56.8688 74.936 57.164 74.9813 57.3588C75.0054 57.4627 75.0427 57.6525 75.0931 57.9282C75.1406 58.191 75.1815 58.4553 75.2159 58.7211C75.2992 59.5504 75.1027 60.0889 74.6265 60.3365C74.9381 60.2641 75.1831 60.3166 75.3613 60.4942C75.5394 60.6718 75.7208 60.9513 75.9053 61.3328C75.9896 61.5185 76.0861 61.8452 76.1948 62.3127L76.5073 63.6568C76.5988 63.9915 76.7596 64.5359 76.9897 65.29C77.0199 65.4199 77.0842 65.6376 77.1827 65.9433C77.2811 66.2489 77.4385 66.5135 77.6547 66.737C77.871 66.9605 78.1025 67.0436 78.3492 66.9862C78.3752 66.9801 78.4371 66.9521 78.535 66.9019C78.6727 66.7878 78.8 66.7171 78.9169 66.6899C79.0467 66.6597 79.1478 66.7115 79.2199 66.8453C79.2571 66.9462 79.2423 67.0591 79.1755 67.1842C79.1058 67.2962 79.009 67.3803 78.8851 67.4365C78.7093 67.5048 78.589 67.5464 78.5241 67.5615ZM84.5878 66.0694C84.4839 66.0936 84.3854 66.0823 84.2924 66.0355C84.2123 65.9856 84.1618 65.9152 84.1406 65.8243L83.5472 63.2724C83.511 63.1166 83.1466 63.0507 82.4541 63.0749C81.7616 63.099 81.201 63.1609 80.7725 63.2606C80.7465 63.2666 80.7237 63.3746 80.704 63.5845C80.6974 63.7913 80.6916 63.9433 80.6868 64.0402C80.675 64.7548 80.6738 65.5148 80.6831 66.3203L80.6854 66.7715C80.6835 66.8814 80.6307 66.9485 80.5268 66.9726C80.4229 66.9968 80.3179 66.987 80.2119 66.9432C80.1189 66.8964 80.0618 66.8275 80.0407 66.7366L80.0511 66.6931L80.0466 66.6736L80.0344 65.6498C80.0483 65.0032 80.0458 64.3741 80.0268 63.7625C80.0026 63.07 80.0004 62.6187 80.02 62.4088C80.0242 61.9561 79.9829 60.8364 79.896 59.0496L79.8634 58.3796C79.736 56.3011 79.6769 54.987 79.6859 54.4374C79.6784 54.1106 79.6881 53.6224 79.715 52.9727C79.7195 52.6979 79.75 52.417 79.8065 52.1301C79.8721 51.8821 79.9438 51.7491 80.0217 51.731C80.2295 51.6827 80.394 51.7129 80.5151 51.8216C80.6072 51.9234 80.854 52.5436 81.2557 53.6822C81.6703 54.8178 82.0685 55.9709 82.4502 57.1416L83.4554 60.3164C83.5852 60.8749 83.8205 61.7099 84.1611 62.8217C84.5048 63.9464 84.7415 64.788 84.8714 65.3464L84.8895 65.4243C84.9227 65.5672 84.9334 65.7016 84.9216 65.8275C84.8939 65.9435 84.7826 66.0241 84.5878 66.0694ZM82.9343 62.4909C83.1941 62.4305 83.3088 62.3354 83.2786 62.2055C83.0914 61.4003 82.7908 60.3135 82.3768 58.9451C81.9597 57.5636 81.5754 56.3525 81.2239 55.3118C81.0923 54.8633 80.9241 54.3753 80.7193 53.848L80.4647 53.1064C80.4677 53.1194 80.4382 53.051 80.3759 52.9012L80.2826 52.6765C80.2452 52.9863 80.2334 53.4066 80.2472 53.9372C80.2741 54.4649 80.3156 55.0849 80.3718 55.7974C80.51 57.8049 80.582 59.3213 80.5877 60.3467L80.5664 61.0498C80.5226 61.7444 80.5399 62.2606 80.6184 62.5982L80.6456 62.7151C81.2593 62.764 81.9363 62.7025 82.6765 62.5303L82.7934 62.5032C82.8354 62.5071 82.8824 62.503 82.9343 62.4909Z" fill="black"/>
<path d="M39.8172 26.6284C39.7715 26.6379 39.7225 26.6311 39.67 26.6079C39.6175 26.5847 39.584 26.5543 39.5693 26.5165C39.4629 26.2662 39.3897 26.0771 39.3495 25.9493L39.2105 25.4266C38.9906 24.662 38.8285 24.0284 38.7242 23.5258C38.6687 23.2581 38.6136 22.9598 38.5589 22.6307C38.5029 22.2951 38.4647 22.0613 38.4441 21.9294L38.3435 21.2966C38.2211 20.6412 38.1267 20.1535 38.0604 19.8336C38.0547 19.7735 38.0439 19.7213 38.0279 19.677C38.0184 19.6313 38.0103 19.5921 38.0035 19.5595L37.9487 19.2951C37.9378 19.2429 37.9519 19.1957 37.9908 19.1536C38.0297 19.1115 38.0864 19.0895 38.161 19.0877C38.2708 19.0921 38.3288 19.1584 38.335 19.2865C38.3368 19.361 38.3399 19.425 38.3442 19.4786C38.3537 19.5243 38.3618 19.5634 38.3686 19.5961L38.4323 20.0016C38.4923 20.3568 38.5334 20.6206 38.5556 20.793C38.5748 20.9184 38.6005 21.1242 38.6326 21.4103C38.6464 21.5095 38.6616 21.6323 38.6784 21.7787C38.6937 21.9184 38.7178 22.0837 38.7506 22.2743C38.835 22.747 38.9023 23.1041 38.9524 23.3457C39.0133 23.6394 39.0626 23.8607 39.1003 24.0095C39.1772 24.3475 39.298 24.7821 39.4626 25.313L39.5753 25.7084C39.5913 25.7527 39.6087 25.8036 39.6274 25.861C39.6513 25.9105 39.6719 25.9607 39.6893 26.0116L39.7284 26.0034C39.7401 25.9942 39.7632 25.7443 39.7976 25.2538C39.8306 24.7567 39.8543 24.4113 39.8686 24.2177L39.9983 22.3321L40.1778 19.4557C40.194 19.1731 40.2071 18.99 40.217 18.9062C40.2293 18.8016 40.2844 18.7391 40.3823 18.7187C40.5129 18.6917 40.5886 18.7611 40.6094 18.927C40.6137 18.9805 40.6174 19.0478 40.6206 19.1289C40.6238 19.2099 40.6323 19.3001 40.6461 19.3994C40.6989 19.6539 40.7756 20.0567 40.8763 20.6078L41.0968 21.8182C41.1131 21.8966 41.1309 22.0154 41.1504 22.1748C41.1861 22.4125 41.2168 22.5934 41.2425 22.7174L41.4676 23.7532C41.5782 24.2205 41.6578 24.5717 41.7066 24.8067L41.8163 25.3354L41.9195 25.7838L41.9256 25.8132C41.9391 25.8784 41.9336 25.934 41.9091 25.98C41.8911 26.0246 41.8554 26.049 41.8018 26.0533C41.7561 26.0628 41.7089 26.0488 41.6603 26.0112C41.6116 25.9736 41.5812 25.9255 41.569 25.8667C41.5555 25.8014 41.5444 25.7152 41.5358 25.6081C41.5128 25.4971 41.4834 25.3228 41.4477 25.0851C41.3904 24.7429 41.3441 24.487 41.3089 24.3173C41.2222 23.8995 41.1496 23.5333 41.0912 23.2186C41.0313 22.8974 40.983 22.6316 40.9462 22.4214C40.9024 22.1445 40.8663 21.9375 40.8378 21.8005C40.804 21.6373 40.7583 21.3846 40.701 21.0425C40.5949 20.4653 40.5113 20.0299 40.4504 19.7361L40.4092 19.7345L40.3526 20.5939L40.1867 22.8956C40.1507 23.3456 40.1046 24.0258 40.0483 24.9362C40.0114 25.4477 39.9902 25.8538 39.9845 26.1546C39.9733 26.2318 39.968 26.3214 39.9687 26.4234C39.9643 26.5332 39.9171 26.6009 39.827 26.6264L39.8172 26.6284ZM44.8255 25.6609C44.6427 25.6988 44.4353 25.667 44.2031 25.5654C43.971 25.4637 43.7935 25.3303 43.6707 25.1652C43.5572 25.0117 43.3639 24.4901 43.0908 23.6003C42.8242 22.7092 42.6449 22.0418 42.5528 21.5979L42.4451 21.0789C42.4075 20.9301 42.3697 20.7644 42.3318 20.5816C42.2613 20.2422 42.2112 19.9019 42.1813 19.5609C42.1735 19.3923 42.1771 19.2452 42.1919 19.1195C42.2132 18.9925 42.2515 18.8655 42.3068 18.7382C42.4044 18.4865 42.5893 18.2949 42.8616 18.1635C43.0036 18.0932 43.166 18.0391 43.3488 18.0012C43.4728 17.9755 43.6043 17.9856 43.7432 18.0317C43.8887 18.0764 43.9716 18.1478 43.9919 18.2457C44.0068 18.3175 43.962 18.3642 43.8576 18.3859C43.8184 18.394 43.7386 18.3867 43.6181 18.3641C43.5107 18.3387 43.4179 18.3341 43.3395 18.3504C43.1568 18.3883 42.9984 18.462 42.8646 18.5715C42.7358 18.6731 42.6419 18.7947 42.5828 18.9363C42.5327 19.0556 42.5004 19.2121 42.4861 19.4057C42.4718 19.5993 42.4771 19.7889 42.502 19.9744C42.5162 20.1416 42.5471 20.3395 42.5945 20.5679L42.718 21.1142C42.757 21.2695 42.7955 21.4386 42.8334 21.6214C42.9269 22.0718 43.11 22.7249 43.3829 23.5806C43.6557 24.4364 43.8488 24.924 43.9621 25.0434C44.0661 25.1512 44.2 25.2222 44.3637 25.2563C44.5339 25.2891 44.7039 25.2879 44.8736 25.2527C45.1739 25.1904 45.3827 25.0483 45.5001 24.8265C45.5426 24.736 45.5965 24.684 45.6617 24.6704C45.7205 24.6582 45.7593 24.6978 45.7783 24.7892C45.8027 24.9067 45.7884 25.0186 45.7356 25.1249C45.6814 25.2246 45.597 25.3102 45.4825 25.3817C45.2926 25.5164 45.0736 25.6095 44.8255 25.6609ZM48.3464 24.8079C48.1832 24.8418 48.0327 24.822 47.8949 24.7484C47.7571 24.6749 47.6431 24.5521 47.553 24.3802C47.5145 24.2929 47.4804 24.1944 47.4509 24.0848C47.42 23.9686 47.4004 23.891 47.3923 23.8518L47.1944 23.0452C47.0838 22.5779 46.9936 22.2086 46.9236 21.9371C46.8914 21.8144 46.8467 21.6977 46.7897 21.587C46.7433 21.4945 46.6932 21.4334 46.6393 21.4037C46.5907 21.3662 46.5272 21.3555 46.4489 21.3718C46.3836 21.3853 46.3106 21.4107 46.2298 21.4479L46.3456 22.006C46.3916 22.2279 46.4764 22.5712 46.6 23.0357C46.6217 23.1402 46.6621 23.302 46.7212 23.5213C46.9251 24.2415 47.0446 24.6865 47.0798 24.8562C47.0846 24.9778 47.0413 25.0481 46.9499 25.067C46.8259 25.0927 46.751 25.0436 46.7253 24.9196C46.6427 24.5214 46.5778 24.2251 46.5307 24.0306C46.4095 23.5451 46.2995 23.064 46.2007 22.5875L45.98 21.6222L45.6683 20.2673C45.6292 20.112 45.5759 19.8711 45.5082 19.5448L45.2153 18.0838L45.173 17.9292C45.1635 17.8835 45.1645 17.839 45.176 17.7958C45.1732 17.7827 45.1803 17.7676 45.1972 17.7505C45.2127 17.7269 45.2433 17.7103 45.289 17.7008C45.3687 17.6911 45.424 17.7443 45.4549 17.8605C45.4739 17.9518 45.5115 18.1006 45.5679 18.3068L45.6712 18.7552C45.7039 18.9458 45.77 19.3134 45.8693 19.8579C45.9686 20.4024 46.0412 20.7687 46.087 20.9566C46.1046 21.0415 46.1461 21.0771 46.2113 21.0636C46.2636 21.0528 46.3182 21.021 46.3754 20.9683C46.5286 20.8207 46.5743 20.5321 46.5124 20.1024C46.4929 19.943 46.4737 19.8176 46.4548 19.7263C46.4312 19.5473 46.4064 19.3618 46.3802 19.1698C46.354 18.9778 46.3277 18.7858 46.3015 18.5938C46.2561 18.2764 46.3178 17.9504 46.4867 17.6158C46.5537 17.4793 46.659 17.3962 46.8027 17.3664C46.894 17.3474 46.9764 17.3508 47.0498 17.3764C47.1349 17.3928 47.1843 17.4336 47.1978 17.4989C47.21 17.5576 47.2011 17.5969 47.1712 17.6168C47.1478 17.6352 47.1054 17.644 47.0439 17.6432C46.9615 17.6398 46.8975 17.6429 46.8518 17.6524C46.7865 17.6659 46.7377 17.6931 46.7053 17.7338C46.678 17.7667 46.6523 17.8231 46.628 17.9031C46.564 18.0866 46.5366 18.2829 46.5459 18.492C46.5539 18.6946 46.5805 18.9376 46.6257 19.221C46.6533 19.4195 46.6772 19.5678 46.6975 19.6657C46.7083 19.7179 46.7247 19.8132 46.7466 19.9517C46.7672 20.0836 46.7845 20.2162 46.7985 20.3494C46.8302 20.765 46.7256 21.0318 46.4846 21.1499C46.6412 21.1174 46.763 21.1466 46.85 21.2375C46.9369 21.3284 47.0242 21.4703 47.1119 21.6632C47.1518 21.757 47.1961 21.9214 47.2449 22.1564L47.385 22.832C47.4268 23.0004 47.5006 23.2744 47.6066 23.6542C47.6202 23.7194 47.6497 23.8291 47.6953 23.983C47.7408 24.137 47.8163 24.2711 47.9217 24.3854C48.0272 24.4997 48.1419 24.544 48.2659 24.5183C48.279 24.5156 48.3102 24.5023 48.3598 24.4784C48.43 24.423 48.4944 24.3891 48.5532 24.377C48.6185 24.3634 48.6684 24.3905 48.7028 24.4583C48.7202 24.5091 48.7114 24.5654 48.6766 24.6271C48.6404 24.6823 48.591 24.7232 48.5284 24.7498C48.4397 24.7818 48.3791 24.8012 48.3464 24.8079ZM49.8384 24.4576C49.7992 24.4657 49.762 24.4666 49.7266 24.4603C49.6899 24.4475 49.6689 24.4281 49.6635 24.402C49.6325 24.2858 49.6186 24.1695 49.6217 24.0532C49.6235 23.9302 49.6327 23.7615 49.6495 23.547C49.6654 23.3939 49.6719 23.2938 49.6689 23.2468C49.681 23.1081 49.6784 22.8329 49.661 22.4212C49.6512 22.144 49.6477 21.9303 49.6506 21.7799C49.5495 21.7192 49.4698 21.6472 49.4117 21.5639C49.3601 21.4793 49.3144 21.3901 49.2745 21.2962C49.2411 21.201 49.2132 21.1319 49.1906 21.0889C48.9075 20.4464 48.5714 19.6957 48.1821 18.8368C48.1145 18.7079 47.9748 18.4611 47.763 18.0965C47.7285 18.0288 47.6855 17.9526 47.6339 17.868L47.4771 17.6044L47.4331 17.4909C47.4223 17.4387 47.424 17.3975 47.4381 17.3673C47.4575 17.3293 47.4834 17.3069 47.5161 17.3001C47.5553 17.292 47.6004 17.2962 47.6515 17.3128C47.6961 17.3308 47.7277 17.3685 47.7465 17.4259C47.7703 17.4754 47.7869 17.506 47.7961 17.5177C47.8865 17.7237 47.9681 17.8872 48.0409 18.0083C48.1693 18.2335 48.2296 18.3436 48.2217 18.3384C48.2866 18.4543 48.3588 18.5891 48.4384 18.7428L48.9519 19.7904C49.1831 20.3143 49.3533 20.7079 49.4624 20.9713C49.4852 21.0483 49.5426 21.1283 49.6347 21.2113L49.6427 20.9543C49.6284 20.787 49.6228 20.6452 49.6259 20.5288C49.6267 20.2699 49.609 19.9877 49.5728 19.682C49.5545 19.4951 49.5379 19.2841 49.5232 19.0489C49.507 18.8071 49.494 18.6294 49.484 18.5157C49.4635 18.0229 49.4317 17.5904 49.3885 17.218L49.3783 17.1691L49.3621 17.0908C49.3526 17.0451 49.3491 17.0117 49.3515 16.9908C49.3499 16.9503 49.3569 16.9182 49.3724 16.8946C49.3931 16.863 49.4198 16.8439 49.4524 16.8371C49.4916 16.829 49.5269 16.8353 49.5585 16.856C49.6215 16.8974 49.6639 16.9703 49.6855 17.0747L49.7219 17.4961L49.8686 19.0895C49.8926 19.3365 49.9056 19.6946 49.9077 20.164C49.9052 20.5458 49.9098 20.8308 49.9217 21.019C49.9461 21.3339 49.9675 21.8469 49.9856 22.5581C50.016 23.328 50.0154 23.883 49.9838 24.2232C49.9911 24.3238 49.9615 24.3946 49.8951 24.4356L49.8384 24.4576ZM53.5652 23.8478C53.3824 23.8858 53.175 23.8539 52.9428 23.7523C52.7107 23.6506 52.5332 23.5172 52.4104 23.3521C52.2969 23.1986 52.1036 22.677 51.8305 21.7873C51.5639 20.8962 51.3846 20.2287 51.2925 19.7848L51.1848 19.2658C51.1472 19.1171 51.1094 18.9513 51.0715 18.7685C51.001 18.4291 50.9509 18.0888 50.921 17.7478C50.9132 17.5792 50.9168 17.4321 50.9316 17.3064C50.9529 17.1795 50.9912 17.0524 51.0465 16.9251C51.1441 16.6734 51.329 16.4818 51.6013 16.3505C51.7433 16.2801 51.9057 16.226 52.0885 16.1881C52.2125 16.1624 52.344 16.1726 52.4829 16.2186C52.6284 16.2634 52.7113 16.3347 52.7316 16.4326C52.7465 16.5044 52.7017 16.5511 52.5973 16.5728C52.5581 16.5809 52.4783 16.5736 52.3578 16.551C52.2504 16.5256 52.1576 16.521 52.0792 16.5373C51.8965 16.5752 51.7381 16.6489 51.6042 16.7584C51.4755 16.86 51.3816 16.9816 51.3225 17.1232C51.2723 17.2426 51.2401 17.399 51.2258 17.5926C51.2115 17.7862 51.2168 17.9758 51.2417 18.1613C51.2559 18.3285 51.2868 18.5264 51.3342 18.7549L51.4577 19.3012C51.4967 19.4565 51.5352 19.6255 51.5731 19.8083C51.6666 20.2587 51.8497 20.9118 52.1226 21.7675C52.3954 22.6233 52.5885 23.1109 52.7018 23.2304C52.8058 23.3381 52.9397 23.4091 53.1034 23.4432C53.2736 23.476 53.4436 23.4748 53.6133 23.4396C53.9136 23.3773 54.1224 23.2352 54.2398 23.0134C54.2823 22.9229 54.3362 22.8709 54.4014 22.8573C54.4602 22.8451 54.499 22.8847 54.518 22.9761C54.5424 23.0936 54.5281 23.2055 54.4753 23.3118C54.4211 23.4116 54.3367 23.4972 54.2222 23.5686C54.0323 23.7033 53.8133 23.7964 53.5652 23.8478ZM56.7972 23.1774C56.6144 23.2153 56.4069 23.1834 56.1748 23.0818C55.9426 22.9802 55.7652 22.8468 55.6424 22.6816C55.5289 22.5281 55.3355 22.0065 55.0624 21.1168C54.7959 20.2257 54.6166 19.5582 54.5245 19.1143L54.4168 18.5954C54.3791 18.4466 54.3413 18.2808 54.3034 18.098C54.233 17.7586 54.1828 17.4183 54.1529 17.0773C54.1452 16.9087 54.1487 16.7616 54.1635 16.636C54.1848 16.509 54.2232 16.3819 54.2785 16.2547C54.376 16.0029 54.561 15.8114 54.8333 15.68C54.9753 15.6097 55.1377 15.5555 55.3205 15.5176C55.4445 15.4919 55.576 15.5021 55.7149 15.5481C55.8603 15.5929 55.9432 15.6642 55.9635 15.7621C55.9784 15.8339 55.9337 15.8806 55.8292 15.9023C55.7901 15.9104 55.7102 15.9032 55.5898 15.8805C55.4824 15.8551 55.3895 15.8505 55.3112 15.8668C55.1284 15.9047 54.9701 15.9784 54.8362 16.0879C54.7075 16.1895 54.6136 16.3111 54.5545 16.4527C54.5043 16.5721 54.4721 16.7285 54.4578 16.9221C54.4435 17.1158 54.4488 17.3053 54.4736 17.4908C54.4879 17.658 54.5187 17.8559 54.5661 18.0844L54.6897 18.6307C54.7287 18.786 54.7672 18.955 54.8051 19.1378C54.8985 19.5882 55.0817 20.2413 55.3545 21.097C55.6274 21.9528 55.8204 22.4404 55.9337 22.5599C56.0378 22.6677 56.1717 22.7386 56.3354 22.7727C56.5056 22.8055 56.6755 22.8043 56.8452 22.7691C57.1455 22.7068 57.3544 22.5647 57.4717 22.3429C57.5142 22.2524 57.5681 22.2004 57.6334 22.1868C57.6922 22.1747 57.731 22.2143 57.75 22.3056C57.7743 22.4231 57.7601 22.535 57.7073 22.6413C57.6531 22.7411 57.5687 22.8267 57.4541 22.8981C57.2642 23.0328 57.0452 23.1259 56.7972 23.1774ZM59.6465 22.4841C59.5813 22.4977 59.5276 22.485 59.4855 22.446C59.442 22.4006 59.4128 22.342 59.3979 22.2702L59.2171 21.3987L59.0363 20.5273L58.6917 18.9647C58.5273 18.2703 58.4091 17.7501 58.3374 17.4041L58.2882 17.1182L58.1562 16.4817C58.01 15.7767 57.9303 15.4256 57.9172 15.4283L56.8108 15.6578C56.7586 15.6687 56.7069 15.6658 56.6558 15.6491C56.6112 15.6311 56.5842 15.5993 56.5747 15.5536C56.5639 15.5014 56.5662 15.4635 56.5817 15.4398C56.5973 15.4162 56.6461 15.389 56.7283 15.3583C56.8156 15.3198 56.9441 15.2829 57.1138 15.2477L58.093 15.0446L59.168 14.8114C59.2463 14.7951 59.3013 14.7973 59.3328 14.818C59.3709 14.8374 59.396 14.8764 59.4082 14.9352C59.4285 15.0331 59.3766 15.0949 59.2526 15.1206L58.812 15.212L58.3811 15.3014L58.2951 15.3295L58.4227 15.8954L58.5811 16.6591L59.4058 20.6345L59.5744 21.4472L59.7345 22.1697L59.7386 22.1893C59.7494 22.2415 59.7556 22.2879 59.7572 22.3284C59.7575 22.3624 59.7498 22.3912 59.7343 22.4148C59.7215 22.4515 59.6922 22.4746 59.6465 22.4841ZM62.2544 21.9431C62.0129 21.9932 61.8826 21.9726 61.8637 21.8812C61.8068 21.607 61.7306 21.1905 61.6351 20.6316L61.3987 19.3938C61.3039 18.9368 61.1526 18.2567 60.9448 17.3534C60.7521 16.556 60.5982 15.8798 60.4831 15.3249C60.3856 14.8549 60.4217 14.6023 60.5914 14.5671C61.0288 14.4764 61.3941 14.547 61.6873 14.7789C61.9871 15.0095 62.185 15.3566 62.2812 15.82C62.3895 16.3422 62.293 16.9274 61.9917 17.5754C62.4094 17.8496 62.7193 18.1292 62.9214 18.414C63.13 18.6976 63.2797 19.058 63.3704 19.4954C63.426 19.763 63.4609 19.9805 63.4751 20.1477C63.4946 20.3071 63.4957 20.4601 63.4784 20.6066C63.4625 20.7597 63.423 20.8973 63.3598 21.0193C63.3031 21.14 63.2157 21.2603 63.0976 21.3801C62.986 21.4986 62.8352 21.6252 62.6453 21.7599C62.571 21.7957 62.5091 21.8256 62.4596 21.8495C62.3815 21.8997 62.3197 21.9296 62.274 21.9391L62.2544 21.9431ZM61.3549 17.6565C61.4985 17.6267 61.6227 17.5362 61.7275 17.3851C61.8324 17.234 61.9062 17.0485 61.9491 16.8285C61.9947 16.6216 62.0193 16.4122 62.023 16.2004C62.0254 15.982 62.009 15.788 61.9738 15.6183C61.9264 15.3898 61.7968 15.192 61.5851 15.0248C61.3799 14.8563 61.1729 14.7937 60.964 14.8371C60.7943 14.8723 60.7386 15.0302 60.7968 15.3109C60.8875 15.7483 60.9753 16.1386 61.0601 16.4818L61.3235 17.6528L61.3549 17.6565ZM62.2437 21.547C62.4656 21.501 62.6545 21.3937 62.8101 21.2253C62.971 21.0489 63.0806 20.8389 63.139 20.5953C63.204 20.3503 63.21 20.1006 63.1572 19.846C62.9148 18.6775 62.4885 18.034 61.8784 17.9155C61.8262 17.9263 61.7447 17.9603 61.634 18.0173C61.5311 18.0795 61.4601 18.1146 61.421 18.1228C61.6743 19.18 61.9283 20.3222 62.1829 21.5494L62.2123 21.5433L62.2437 21.547ZM66.302 21.2566C65.3946 21.4448 64.6153 19.9691 63.9639 16.8292L63.8826 16.4376C63.7689 15.8893 63.7027 15.406 63.684 14.9877C63.6703 14.725 63.6792 14.5053 63.7107 14.3286C63.7486 14.1505 63.8162 14.0003 63.9134 13.878C64.0013 13.744 64.1334 13.6587 64.3097 13.6222C64.4663 13.5896 64.6167 13.5925 64.7608 13.6307C64.9035 13.6624 65.0275 13.7183 65.1327 13.7987C65.2234 13.8751 65.3138 13.9824 65.4037 14.1203C65.4935 14.2583 65.569 14.3924 65.6301 14.5227L65.8039 14.9667C66.1921 16.0504 66.4756 17.0231 66.6544 17.8847L66.6605 17.9141C66.7282 18.2405 66.784 18.5421 66.8278 18.819C66.8824 19.1481 66.9176 19.4982 66.9334 19.8694C66.9438 20.0511 66.9365 20.2126 66.9113 20.354C66.8927 20.4941 66.8578 20.6375 66.8065 20.7843C66.7182 21.0477 66.55 21.2052 66.302 21.2566ZM66.2647 20.9784C66.3691 20.9567 66.4516 20.8783 66.5121 20.7432C66.5712 20.6016 66.6013 20.4183 66.6023 20.1935C66.6119 19.7148 66.5844 19.2542 66.5198 18.8114C66.4597 18.4562 66.3952 18.1121 66.3261 17.7792L66.318 17.74L66.1051 16.7629C66.0189 16.4131 65.8849 15.9643 65.7032 15.4165C65.5684 15.0291 65.376 14.6435 65.1262 14.2596C65.027 14.1099 64.9125 14.0009 64.7826 13.9326C64.6592 13.8628 64.5354 13.8408 64.4114 13.8666C64.3005 13.8896 64.2134 13.9621 64.1502 14.0842C64.087 14.2062 64.0489 14.3673 64.036 14.5675C64.0092 15.0292 64.0279 15.4474 64.092 15.8222C64.1388 16.1461 64.1974 16.4778 64.2678 16.8173L64.3673 17.297C64.4581 17.7344 64.6156 18.2805 64.8399 18.9352C64.9802 19.3487 65.122 19.7039 65.2653 20.001C65.4086 20.2981 65.5679 20.5408 65.7432 20.7291C65.9211 20.9305 66.095 21.0136 66.2647 20.9784Z" fill="black"/>
</svg>
