<svg width="107" height="107" viewBox="0 0 107 107" fill="none" xmlns="http://www.w3.org/2000/svg">
<path d="M53.5 4.28003C26.3419 4.28003 4.28003 26.3419 4.28003 53.5C4.28003 80.6581 26.3419 102.72 53.5 102.72C80.6582 102.72 102.72 80.6581 102.72 53.5C102.72 26.3419 80.6582 4.28003 53.5 4.28003ZM53.5 8.56003C78.3451 8.56003 98.44 28.655 98.44 53.5C98.44 78.3451 78.3451 98.44 53.5 98.44C28.655 98.44 8.56003 78.3451 8.56003 53.5C8.56003 28.655 28.655 8.56003 53.5 8.56003ZM72.9481 30.0353C71.4844 30.0353 69.8396 30.3743 67.9158 31.0676C64.9283 32.1441 29.7904 47.0632 25.7929 48.7603C23.5074 49.7318 19.2517 51.5391 19.2517 55.849C19.2517 58.7059 20.9257 60.7493 24.2213 61.9263C25.9932 62.5576 30.2017 63.8332 32.6434 64.5051C33.6791 64.7898 34.7798 64.9357 35.9119 64.9357C38.1268 64.9357 40.3558 64.3838 42.102 63.4101C42.087 63.7696 42.0968 64.133 42.1396 64.4968C42.4029 66.7438 43.7884 68.8572 45.8428 70.1519C47.1868 70.9993 58.1638 78.3543 59.803 79.5228C62.1056 81.1684 64.6512 82.0389 67.1593 82.0389C71.9529 82.0389 73.5611 77.0895 74.3358 74.7119C75.4593 71.2601 79.6663 43.1898 80.1414 38.24C80.4645 34.8481 79.0509 32.055 76.3587 30.7667C75.3508 30.2809 74.2 30.0353 72.9481 30.0353ZM72.9481 34.3153C73.5366 34.3153 74.062 34.4126 74.5071 34.6287C75.5194 35.1145 76.0343 36.1975 75.8781 37.8346C75.3602 43.2338 71.1635 70.6392 70.2689 73.387C69.5028 75.7367 68.6958 77.7589 67.1593 77.7589C65.6227 77.7589 63.9441 77.2203 62.2899 76.0369C60.6357 74.8556 49.6508 67.489 48.125 66.5281C46.7875 65.685 45.3719 63.5831 47.3643 61.5501C49.0056 59.8766 61.4562 47.7925 62.5198 46.7289C63.3116 45.935 62.9413 44.9776 62.1645 44.9776C61.897 44.9776 61.5767 45.0904 61.245 45.3622C59.9439 46.4258 41.8045 58.5638 40.2337 59.5397C39.1937 60.186 37.5832 60.6515 35.9119 60.6515C35.1993 60.6515 34.4778 60.5661 33.7844 60.3756C31.3705 59.7101 27.2854 58.4707 25.6633 57.8929C24.1033 57.3365 23.5359 56.8035 23.5359 55.849C23.5359 54.4923 25.4509 53.5557 27.4689 52.6975C29.6004 51.7923 66.4814 36.1306 69.3661 35.0927C70.7015 34.609 71.9231 34.3153 72.9481 34.3153Z" fill="#A25133"/>
</svg>
