<svg width="107" height="107" viewBox="0 0 107 107" fill="none" xmlns="http://www.w3.org/2000/svg">
<path d="M19.2601 8.56006C13.3761 8.56006 8.56006 13.3761 8.56006 19.2601V87.7401C8.56006 93.624 13.3761 98.4401 19.2601 98.4401H87.7401C93.624 98.4401 98.4401 93.624 98.4401 87.7401V19.2601C98.4401 13.3761 93.624 8.56006 87.7401 8.56006H19.2601ZM19.2601 12.8401H87.7401C91.3106 12.8401 94.16 15.6895 94.16 19.2601V87.7401C94.16 91.3106 91.3106 94.16 87.7401 94.16H19.2601C15.6895 94.16 12.8401 91.3106 12.8401 87.7401V19.2601C12.8401 15.6895 15.6895 12.8401 19.2601 12.8401ZM50.0685 34.2233C47.8055 34.2181 45.7876 34.3446 43.9829 35.2306L43.9787 35.2348C43.0989 35.6683 42.4788 36.2189 41.985 36.8733C41.7381 37.2004 41.4852 37.4941 41.3497 38.24C41.282 38.613 41.2439 39.2173 41.6339 39.8701C42.024 40.5229 42.8082 40.8941 43.31 40.961C43.6586 41.0074 44.4453 41.3423 44.5179 41.4417L44.5221 41.45C44.5221 41.45 44.8272 42.2461 44.915 42.9547C45.0028 43.6633 44.9986 44.2379 44.9986 44.2379C44.9977 44.295 44.9991 44.3522 45.0028 44.4092C45.0028 44.4092 45.1267 46.2658 45.0445 48.1835C45.0118 48.9478 44.913 49.6278 44.8105 50.2357C44.0484 49.3944 42.9255 47.8707 41.3037 45.0613C39.5047 41.9429 38.0728 39.147 38.0728 39.147C37.9976 38.9034 37.7317 38.1456 36.6935 37.3832C35.5586 36.5467 34.4616 36.4219 34.4616 36.4219C34.324 36.3943 34.184 36.3802 34.0436 36.3801L25.609 36.3842C25.609 36.3842 25.1033 36.355 24.4972 36.4386C23.8911 36.5222 22.9785 36.5902 22.0981 37.634L22.0939 37.6381C21.307 38.5783 21.3546 39.6175 21.4502 40.2045C21.5458 40.7915 21.7595 41.2369 21.7595 41.2369C21.7636 41.2452 21.7678 41.2536 21.772 41.2619C21.772 41.2619 28.6712 55.7674 36.4678 64.3087C42.1296 70.5105 47.9408 70.6159 52.7352 70.6159H56.313C57.2264 70.6159 58.0526 70.5802 58.9671 70.0474C59.8815 69.5147 60.4969 68.2177 60.4969 67.3181C60.4969 66.3754 60.6376 65.6343 60.8103 65.2533C60.9318 64.9854 61.028 64.8889 61.1781 64.8103C61.2099 64.8304 61.1894 64.8187 61.2785 64.8813C61.6347 65.1319 62.223 65.703 62.8626 66.4153C64.1418 67.84 65.5938 69.7941 67.5438 71.1342C68.9408 72.095 70.2605 72.5217 71.2637 72.6765C71.8923 72.7734 72.3805 72.7548 72.7266 72.7266L80.7182 72.7601C80.7656 72.7602 80.813 72.7588 80.8603 72.7559C80.8603 72.7559 82.2373 72.7719 83.669 71.9158C84.3849 71.4876 85.2292 70.6759 85.5039 69.4915C85.7786 68.3072 85.4334 67.0799 84.7599 65.9597V65.9555C84.8769 66.1494 84.6541 65.751 84.4256 65.3787C84.1971 65.0064 83.8653 64.5048 83.389 63.8824C82.4364 62.6376 80.9106 60.8957 78.4444 58.5993H78.4402C77.1877 57.4339 76.3418 56.6087 75.9951 56.15C75.6485 55.6912 75.7622 55.9322 75.7861 55.8156C75.8341 55.5824 77.3375 53.4137 80.3963 49.3287C82.2558 46.8423 83.5607 44.9755 84.4214 43.4228C85.282 41.8701 85.9026 40.5254 85.4705 38.8795L85.4663 38.8712C85.2745 38.1486 84.7505 37.4827 84.2124 37.1199C83.6743 36.757 83.1642 36.6151 82.7077 36.5263C81.7948 36.3488 80.9982 36.3801 80.2584 36.3801C78.7074 36.3801 71.8259 36.4344 71.2595 36.4344C70.5903 36.4344 69.4837 36.7388 68.9942 37.0321C67.7634 37.7727 67.4101 38.7458 67.4101 38.7458C67.3878 38.7869 67.3669 38.8287 67.3474 38.8712C67.3474 38.8712 65.9278 42.0189 64.0997 45.1281C62.2478 48.2819 60.8797 49.7861 60.0538 50.4823C60.0311 50.3585 60.035 50.459 60.0204 50.2859C59.9463 49.4052 60.0287 48.1882 60.0287 47.0006C60.0287 43.8024 60.2998 41.564 60.1541 39.5859C60.0813 38.5968 59.8981 37.5769 59.2471 36.6392C58.5962 35.7015 57.5131 35.0923 56.4426 34.8336C55.8002 34.6786 55.0681 34.2756 52.4175 34.2484H52.4133C51.6028 34.2403 50.8229 34.2251 50.0685 34.2233ZM52.3715 38.5284C54.7169 38.5525 54.1327 38.6816 55.4352 38.9965C55.8392 39.0941 55.7413 39.0936 55.732 39.0801C55.7226 39.0667 55.8413 39.2873 55.8867 39.9035C55.9774 41.136 55.7487 43.5863 55.7487 47.0006C55.7487 47.9317 55.6364 49.2603 55.7529 50.6453C55.8693 52.0303 56.2128 53.8078 57.8678 54.8794C58.6523 55.3879 59.5632 55.4199 60.3422 55.2263C61.1212 55.0326 61.8279 54.6292 62.57 54.0351C64.0542 52.8467 65.7096 50.841 67.7904 47.2974C69.7353 43.9896 71.1499 40.8398 71.1968 40.7353C71.206 40.7279 71.2153 40.7229 71.2261 40.7144C71.2528 40.7147 71.2252 40.7144 71.2595 40.7144C72.0585 40.7144 78.8134 40.6601 80.2584 40.6601C80.5957 40.6601 80.7185 40.6804 80.9857 40.6893C80.9131 40.9317 80.9938 40.7771 80.6764 41.3497C80.0107 42.5507 78.784 44.3354 76.969 46.7624C73.9866 50.7452 72.1382 52.3059 71.5939 54.9504C71.3218 56.2727 71.8318 57.7383 72.5803 58.7288C73.3289 59.7193 74.2737 60.5679 75.527 61.734C77.848 63.8952 79.2096 65.4654 79.9909 66.4863C80.3816 66.9968 80.6278 67.3655 80.7809 67.6149C80.9339 67.8642 80.8961 67.8379 81.0944 68.1666C81.2249 68.3853 81.1768 68.2518 81.1988 68.317C80.9423 68.3894 80.6314 68.4765 80.6137 68.4801L72.7433 68.4466C72.6016 68.4465 72.4602 68.4605 72.3212 68.4884C72.3212 68.4884 72.3409 68.5116 71.9199 68.4466C71.4989 68.3817 70.8294 68.1995 69.968 67.6065C68.9285 66.8921 67.4732 65.1443 66.0475 63.5564C65.3346 62.7624 64.6236 62 63.7403 61.3788C62.8569 60.7576 61.5351 60.1734 60.1081 60.6222C58.6268 61.0874 57.4737 62.2435 56.9107 63.4853C56.4916 64.4097 56.4576 65.3753 56.3924 66.3359C56.3214 66.3412 56.4031 66.3359 56.313 66.3359H52.7352C47.8738 66.3359 44.422 66.6721 39.6277 61.4206C33.1788 54.3557 27.2703 42.6011 26.307 40.6642L33.7301 40.6601C33.8606 40.7101 34.1399 40.815 34.1565 40.8272L34.1648 40.8356C33.8935 40.6373 34.1774 40.915 34.1774 40.915C34.2036 40.9791 34.2329 41.0419 34.2651 41.1031C34.2651 41.1031 35.736 43.9767 37.5963 47.2013C39.4212 50.3624 40.7509 52.3372 42.0352 53.6422C42.6773 54.2946 43.3255 54.8179 44.1919 55.1134C45.0583 55.4089 46.177 55.3005 46.9296 54.8877C48.467 54.0461 48.6736 52.8048 48.9233 51.7195C49.1734 50.6327 49.2729 49.475 49.3204 48.3674C49.4125 46.2175 49.2822 44.3569 49.2744 44.2421C49.2749 44.2018 49.2847 43.4259 49.1615 42.4322C49.0355 41.4148 48.8949 40.1708 47.9745 38.9171L47.9703 38.9129C47.9639 38.9042 47.9559 38.9048 47.9494 38.8962C49.1666 38.7217 50.208 38.5068 52.3715 38.5284ZM71.2512 40.6266L71.2219 40.6935C71.2174 40.6961 71.2188 40.6904 71.2136 40.6935C71.2226 40.6762 71.2512 40.6266 71.2512 40.6266Z" fill="#A25133"/>
</svg>
